<svg xmlns="http://www.w3.org/2000/svg" xmlns:xlink="http://www.w3.org/1999/xlink" xmlns:lucid="lucid" width="1404" height="895.28"><g transform="translate(-70 -61.66666666666667)" lucid:page-tab-id="0_0"><path d="M824 81.67c3.3 0 6 2.68 6 6v48c0 3.3-2.7 6-6 6H576c-3.3 0-6-2.7-6-6v-48c0-3.32 2.7-6 6-6z" stroke="#000" stroke-width="2" fill="#fff"/><use xlink:href="#a" transform="matrix(1,0,0,1,590,81.66666666666669) translate(35.099999999999994 33.6)"/><path d="M599.75 97.42c0 2.62-2.13 4.75-4.75 4.75s-4.75-2.13-4.75-4.75c0-2.63 2.13-4.75 4.75-4.75s4.75 2.12 4.75 4.75z" stroke="#000" stroke-width="2" fill="#fff"/><path d="M585 92.67h20v38h-20z" fill="none"/><path d="M595 102.17v13.3l10 15.2m-10-15.2l-10 15.2m0-23.75h20" stroke="#000" stroke-width="2" fill="none"/><path d="M1292 343c28.72 0 52 14.33 52 32s-23.28 32-52 32h-156c-28.72 0-52-14.33-52-32s23.28-32 52-32z" stroke="#000" stroke-width="2" fill="#fff"/><use xlink:href="#b" transform="matrix(1,0,0,1,1089,348) translate(10.275000000000034 30.6)"/><path d="M1224 397c0 5.52-4.48 10-10 10s-10-4.48-10-10 4.48-10 10-10 10 4.48 10 10zm-17.07-7.07l14.14 14.14m-14.14 0l14.14-14.14M1438 188c3.3 0 6 2.7 6 6v48c0 3.3-2.7 6-6 6h-308c-3.3 0-6-2.7-6-6v-48c0-3.3 2.7-6 6-6z" stroke="#000" stroke-width="2" fill="#fff"/><use xlink:href="#c" transform="matrix(1,0,0,1,1144,188) translate(119.025 33.6)"/><path d="M1162.08 203.75c0 2.62-2.12 4.75-4.75 4.75-2.62 0-4.75-2.13-4.75-4.75s2.13-4.75 4.75-4.75c2.63 0 4.75 2.13 4.75 4.75z" stroke="#000" stroke-width="2" fill="#fff"/><path d="M1144 199h26.67v38H1144z" fill="none"/><path d="M1157.33 208.5v13.3l13.34 15.2m-13.34-15.2L1144 237m0-23.75h26.67" stroke="#000" stroke-width="2" fill="none"/><path d="M1448 177c3.3 0 6 2.7 6 6v48c0 3.3-2.7 6-6 6h-308c-3.3 0-6-2.7-6-6v-48c0-3.3 2.7-6 6-6z" stroke="#000" stroke-width="2" fill="#fff"/><use xlink:href="#d" transform="matrix(1,0,0,1,1154,177) translate(32.592592592592595 33.55555555555556)"/><path d="M1172.08 192.75c0 2.62-2.12 4.75-4.75 4.75-2.62 0-4.75-2.13-4.75-4.75s2.13-4.75 4.75-4.75c2.63 0 4.75 2.13 4.75 4.75z" stroke="#000" stroke-width="2" fill="#fff"/><path d="M1154 188h26.67v38H1154z" fill="none"/><path d="M1167.33 197.5v13.3l13.34 15.2m-13.34-15.2L1154 226m0-23.75h26.67" stroke="#000" stroke-width="2" fill="none"/><path d="M690 790.95c28.72 0 52 14.33 52 32s-23.28 32-52 32H534c-28.72 0-52-14.33-52-32s23.28-32 52-32z" stroke="#000" stroke-width="2" fill="#fff"/><use xlink:href="#e" transform="matrix(1,0,0,1,486.9999999999999,795.9503069971641) translate(62.14999999999999 30.6)"/><path d="M622 844.95c0 5.52-4.48 10-10 10s-10-4.48-10-10 4.48-10 10-10 10 4.48 10 10zm-17.07-7.07l14.14 14.14m-14.14 0l14.14-14.14M1078 865.95c3.3 0 6 2.7 6 6v48c0 3.3-2.7 6-6 6H770c-3.3 0-6-2.7-6-6v-48c0-3.3 2.7-6 6-6z" stroke="#000" stroke-width="2" fill="#fff"/><use xlink:href="#c" transform="matrix(1,0,0,1,783.9999999999999,865.9503069971641) translate(119.025 33.6)"/><path d="M802.08 881.7c0 2.62-2.12 4.75-4.75 4.75-2.62 0-4.75-2.13-4.75-4.75s2.13-4.75 4.75-4.75c2.63 0 4.75 2.13 4.75 4.75z" stroke="#000" stroke-width="2" fill="#fff"/><path d="M784 876.95h26.67v38H784z" fill="none"/><path d="M797.33 886.45v13.3l13.34 15.2m-13.34-15.2L784 914.95m0-23.75h26.67" stroke="#000" stroke-width="2" fill="none"/><path d="M1088 854.95c3.3 0 6 2.7 6 6v48c0 3.3-2.7 6-6 6H780c-3.3 0-6-2.7-6-6v-48c0-3.3 2.7-6 6-6z" stroke="#000" stroke-width="2" fill="#fff"/><use xlink:href="#f" transform="matrix(1,0,0,1,793.9999999999999,854.9503069971641) translate(83.82716049382715 33.55555555555556)"/><path d="M812.08 870.7c0 2.62-2.12 4.75-4.75 4.75-2.62 0-4.75-2.13-4.75-4.75s2.13-4.75 4.75-4.75c2.63 0 4.75 2.13 4.75 4.75z" stroke="#000" stroke-width="2" fill="#fff"/><path d="M794 865.95h26.67v38H794z" fill="none"/><path d="M807.33 875.45v13.3l13.34 15.2m-13.34-15.2L794 903.95m0-23.75h26.67" stroke="#000" stroke-width="2" fill="none"/><path d="M1088 716.95c3.3 0 6 2.7 6 6v48c0 3.3-2.7 6-6 6H740c-3.3 0-6-2.7-6-6v-48c0-3.3 2.7-6 6-6z" stroke="#000" stroke-width="2" fill="#fff"/><use xlink:href="#g" transform="matrix(1,0,0,1,753.9999999999999,716.9503069971643) translate(38.17500000000001 33.6)"/><path d="M772.08 732.7c0 2.62-2.12 4.75-4.75 4.75-2.62 0-4.75-2.13-4.75-4.75s2.13-4.75 4.75-4.75c2.63 0 4.75 2.13 4.75 4.75z" stroke="#000" stroke-width="2" fill="#fff"/><path d="M754 727.95h26.67v38H754z" fill="none"/><path d="M767.33 737.45v13.3l13.34 15.2m-13.34-15.2L754 765.95m0-23.75h26.67" stroke="#000" stroke-width="2" fill="none"/><path d="M495 693c28.72 0 52 14.33 52 32s-23.28 32-52 32H339c-28.72 0-52-14.33-52-32s23.28-32 52-32z" stroke="#000" stroke-width="2" fill="#fff"/><use xlink:href="#h" transform="matrix(1,0,0,1,292,698) translate(31.150000000000006 30.6)"/><path d="M427 747c0 5.52-4.48 10-10 10s-10-4.48-10-10 4.48-10 10-10 10 4.48 10 10zm-17.07-7.07l14.14 14.14m-14.14 0l14.14-14.14M1088 545.95c3.3 0 6 2.7 6 6v48c0 3.3-2.7 6-6 6H780c-3.3 0-6-2.7-6-6v-48c0-3.3 2.7-6 6-6z" stroke="#000" stroke-width="2" fill="#fff"/><use xlink:href="#c" transform="matrix(1,0,0,1,793.9999999999999,545.9503069971643) translate(119.025 33.6)"/><path d="M812.08 561.7c0 2.62-2.12 4.75-4.75 4.75-2.62 0-4.75-2.13-4.75-4.75s2.13-4.75 4.75-4.75c2.63 0 4.75 2.13 4.75 4.75z" stroke="#000" stroke-width="2" fill="#fff"/><path d="M794 556.95h26.67v38H794z" fill="none"/><path d="M807.33 566.45v13.3l13.34 15.2m-13.34-15.2L794 594.95m0-23.75h26.67" stroke="#000" stroke-width="2" fill="none"/><path d="M1098 536.95c3.3 0 6 2.7 6 6v48c0 3.3-2.7 6-6 6H790c-3.3 0-6-2.7-6-6v-48c0-3.3 2.7-6 6-6z" stroke="#000" stroke-width="2" fill="#fff"/><use xlink:href="#i" transform="matrix(1,0,0,1,803.9999999999999,536.9503069971643) translate(53.20987654320989 33.55555555555556)"/><path d="M822.08 550.7c0 2.62-2.12 4.75-4.75 4.75-2.62 0-4.75-2.13-4.75-4.75s2.13-4.75 4.75-4.75c2.63 0 4.75 2.13 4.75 4.75z" stroke="#000" stroke-width="2" fill="#fff"/><path d="M804 545.95h26.67v38H804z" fill="none"/><path d="M817.33 555.45v13.3l13.34 15.2m-13.34-15.2L804 583.95m0-23.75h26.67" stroke="#000" stroke-width="2" fill="none"/><path d="M328 363.33c28.72 0 52 14.33 52 32 0 17.68-23.28 32-52 32H172c-28.72 0-52-14.32-52-32 0-17.67 23.28-32 52-32z" stroke="#000" stroke-width="2" fill="#fff"/><use xlink:href="#j" transform="matrix(1,0,0,1,125,368.3333333333333) translate(12.15000000000002 30.6)"/><path d="M260 417.33c0 5.53-4.48 10-10 10s-10-4.47-10-10c0-5.52 4.48-10 10-10s10 4.48 10 10zm-17.07-7.07l14.14 14.15m-14.14 0l14.14-14.14M554 570c3.3 0 6 2.7 6 6v48c0 3.3-2.7 6-6 6H246c-3.3 0-6-2.7-6-6v-48c0-3.3 2.7-6 6-6z" stroke="#000" stroke-width="2" fill="#fff"/><use xlink:href="#c" transform="matrix(1,0,0,1,260,570) translate(119.025 33.6)"/><path d="M278.08 585.75c0 2.62-2.12 4.75-4.75 4.75-2.62 0-4.75-2.13-4.75-4.75s2.13-4.75 4.75-4.75c2.63 0 4.75 2.13 4.75 4.75z" stroke="#000" stroke-width="2" fill="#fff"/><path d="M260 581h26.67v38H260z" fill="none"/><path d="M273.33 590.5v13.3l13.34 15.2m-13.34-15.2L260 619m0-23.75h26.67" stroke="#000" stroke-width="2" fill="none"/><path d="M564 559c3.3 0 6 2.7 6 6v48c0 3.3-2.7 6-6 6H256c-3.3 0-6-2.7-6-6v-48c0-3.3 2.7-6 6-6z" stroke="#000" stroke-width="2" fill="#fff"/><use xlink:href="#k" transform="matrix(1,0,0,1,270,559) translate(34.44444444444444 33.55555555555556)"/><path d="M288.08 574.75c0 2.62-2.12 4.75-4.75 4.75-2.62 0-4.75-2.13-4.75-4.75s2.13-4.75 4.75-4.75c2.63 0 4.75 2.13 4.75 4.75z" stroke="#000" stroke-width="2" fill="#fff"/><path d="M270 570h26.67v38H270z" fill="none"/><path d="M283.33 579.5v13.3l13.34 15.2m-13.34-15.2L270 608m0-23.75h26.67" stroke="#000" stroke-width="2" fill="none"/><path d="M404 200c3.3 0 6 2.7 6 6v48c0 3.3-2.7 6-6 6H96c-3.3 0-6-2.7-6-6v-48c0-3.3 2.7-6 6-6z" stroke="#000" stroke-width="2" fill="#fff"/><use xlink:href="#l" transform="matrix(1,0,0,1,110,200) translate(32.150000000000006 33.6)"/><path d="M128.08 215.75c0 2.62-2.12 4.75-4.75 4.75-2.62 0-4.75-2.13-4.75-4.75s2.13-4.75 4.75-4.75c2.63 0 4.75 2.13 4.75 4.75z" stroke="#000" stroke-width="2" fill="#fff"/><path d="M110 211h26.67v38H110z" fill="none"/><path d="M123.33 220.5v13.3l13.34 15.2m-13.34-15.2L110 249m0-23.75h26.67" stroke="#000" stroke-width="2" fill="none"/><path d="M360.1 96.3l-4.98.75-11.22 2.13-9.47 2.22-8.14 2.26-7.1 2.3-6.24 2.32-5.55 2.33-4.96 2.35-4.5 2.35-4.08 2.36-3.73 2.36-3.43 2.4-3.16 2.38-2.93 2.42-2.7 2.45-2.54 2.5-2.37 2.5-2.23 2.58-2.08 2.63-1.97 2.7-1.84 2.76-1.74 2.85-1.62 2.94-1.52 3.07-1.42 3.2-1.33 3.34-1.22 3.5-1.1 3.7-1.02 3.92-.88 4.16-.75 4.45-.06.48-2-.25.08-.52.76-4.53.9-4.25 1.03-4 1.15-3.77 1.25-3.58 1.35-3.42 1.46-3.27 1.57-3.14 1.66-3.03 1.77-2.94 1.9-2.83 2-2.76 2.13-2.7 2.27-2.63 2.43-2.58 2.6-2.55 2.78-2.5 3-2.46 3.23-2.45 3.5-2.44 3.8-2.4 4.15-2.4 4.57-2.4 5.05-2.37 5.63-2.38 6.32-2.35 7.17-2.32 8.2-2.3 9.57-2.23 11.3-2.15 5.3-.78zM569 91.68l-.02 2-160.53-1.8-7.77.48v-2l7.72-.48zM570 91.68v2h-1.02l.03-2zM255.82 181.86l-5.6 13.9-3.65-14.54z"/><path d="M257.26 180.95L250 199l-4.73-18.87zm-6.82 11.6l3.94-9.8-6.5-.44z"/><use xlink:href="#m" transform="matrix(1,0,0,1,360.11035921159805,83.49257786644162) translate(0 12.444444444444446)"/><path d="M482.36 183.9l-6.88 9.52-4.76 6.02-3.93 4.56-3.48 3.7-3.17 3.1-2.97 2.68-2.8 2.33-2.7 2.06-2.64 1.83-2.57 1.62-2.53 1.46-2.5 1.3-2.52 1.2-2.5 1.05-2.55.95-2.58.83-2.63.74-2.7.63-2.75.53-2.87.42-2.97.32-3.1.2-3.26.06-.04-2 3.2-.07 3.03-.2 2.9-.3 2.78-.4 2.7-.5 2.6-.62 2.54-.7 2.5-.8 2.45-.93 2.44-1.02 2.44-1.15 2.44-1.27 2.46-1.42 2.5-1.58 2.55-1.78 2.63-2 2.75-2.27 2.9-2.62 3.1-3.05 3.42-3.63 3.88-4.5 4.7-5.96 6.85-9.45 1.73-2.5h2.43zm68.87-68.97l-1.95.54-2.5.8-2.45.93-2.44 1.02-2.44 1.15-2.44 1.27-2.46 1.42-2.5 1.6-2.55 1.76-2.63 2-2.75 2.28-2.9 2.6-3.1 3.06-3.42 3.64-3.88 4.5-4.7 5.94-8.36 12.14h-2.43l9.18-13.32 4.78-6.03 3.93-4.57 3.48-3.7 3.17-3.1 2.97-2.67 2.8-2.34 2.7-2.06 2.64-1.82 2.57-1.63 2.53-1.46 2.5-1.33 2.52-1.18 2.5-1.06 2.55-.95 2.58-.85 2-.55z"/><path d="M411.1 231l-1.1.1v-2l.9-.1zM565.8 112.08l-13.58 6.4-1.17-9.2z"/><path d="M569 111.67l-17.6 8.3-1.5-11.93zm-15.96 5.3l9.54-4.5-10.36-1.95z"/><use xlink:href="#n" transform="matrix(1,0,0,1,436.6147150472652,161.575203046109) translate(0 12.444444444444446)"/><path d="M251 344.1h-2V321h2zm0-41.77h-2V261h2zM251 261h-2v-1h2zM250 359.1l-4.64-14.27h9.28z"/><path d="M250 362.33l-6-18.5h12zm-3.26-16.5l3.26 10.03 3.26-10.03z"/><use xlink:href="#o" transform="matrix(1,0,0,1,203.80864197530866,302.3340933257334) translate(0 12.444444444444446)"/><path d="M305.27 504.28l4.25 3.98 3.22 3.3 2.64 2.9 2.23 2.7 1.94 2.55 1.7 2.46 1.5 2.37 1.36 2.34 1.2 2.3 1.1 2.32.97 2.32.88 2.35.78 2.4.32 1.14-1.93.55-.3-1.1-.76-2.32-.85-2.28-.93-2.24-1.05-2.23-1.17-2.24-1.3-2.26-1.47-2.3-1.66-2.38-1.88-2.5-2.18-2.62-2.58-2.86-3.16-3.23-4.17-3.92-16.98-14.03h3.14zm-54.2-72.82l.18 2.94.3 2.78.38 2.65.5 2.54.56 2.44.65 2.4.76 2.3.85 2.28.95 2.25 1.05 2.23 1.17 2.24 1.3 2.26 1.47 2.3 1.64 2.38 1.88 2.48 2.18 2.63 2.3 2.54h-2.7l-1.1-1.24-2.24-2.7-1.94-2.54-1.7-2.44-1.5-2.38-1.35-2.34-1.2-2.3-1.1-2.32-.98-2.32-.88-2.36-.78-2.4-.7-2.45-.58-2.52-.5-2.62-.4-2.73-.3-2.87-.2-3.02-.06-3.18 2-.05z"/><path d="M251 428.23l-2 .2-.1-1.1h2zM330.34 554.8l-6.46-13.54 9.2-1.22z"/><path d="M330.76 558l-8.38-17.55 11.92-1.58zm-5.4-15.93l4.56 9.5 1.9-10.36z"/><use xlink:href="#o" transform="matrix(1,0,0,1,231.26773549900648,473.0876911580841) translate(0 12.444444444444446)"/><path d="M487.58 343.4l-20.46 29.2-10.4 16.33-7.8 13.5-6.4 12.24-5.46 11.6-4.75 11.3-4.18 11.26-3.7 11.4-3.27 11.7-2.85 12.14-2.43 12.76-2 13.55-1.53 14.54-.98 15.77L411 558l-2-.03.36-17.36 1-15.85 1.52-14.62 2-13.63 2.46-12.84 2.87-12.23 3.3-11.78 3.73-11.48 4.22-11.34 4.78-11.38 5.5-11.67 6.44-12.3 7.85-13.6 10.44-16.4 20.5-29.24.18-.26h2.45zm88.4-182.5l-.8 5.52-2.54 13.27-2.95 12.6-3.4 12.12-3.83 11.8-4.32 11.62-4.9 11.64-5.6 11.9-6.55 12.53-7.97 13.8-10.57 16.6-7.37 10.34h-2.46l8.17-11.46 10.52-16.53 7.92-13.7 6.52-12.46 5.57-11.84 4.86-11.56 4.28-11.54 3.8-11.7 3.37-12.05 2.94-12.52 2.5-13.2.8-5.48z"/><path d="M411 558l-.02 1h-2l.02-1.03zM579.7 160.62l-9.2-1.2 6.42-13.54z"/><path d="M580.93 161.8L569 160.24l8.33-17.58zM572 158.6l6.45.83-1.95-10.36z"/><use xlink:href="#p" transform="matrix(1,0,0,1,474.3515835083236,304.6446044144803) translate(0.004999999999999005 12.444444444444446)"/><use xlink:href="#q" transform="matrix(1,0,0,1,474.3515835083236,304.6446044144803) translate(0.41549382716049266 31.111111111111118)"/><path d="M539.17 378.25l-9.52 18.14-6.67 14.15-5.38 12.8-4.57 12.28-3.98 12.24-3.5 12.52-3.06 13.06-2.66 13.88-2.2 15-1.73 16.47-1.14 18.37-.43 20.84-2-.03.43-20.88 1.15-18.46 1.75-16.55 2.22-15.1 2.66-13.96 3.1-13.15 3.5-12.6 4-12.33 4.6-12.36 5.42-12.86 6.7-14.24 9.56-18.2 36.86-65.74h2.3zm76.12-217.33l-.06 2.66-1.15 18.45-1.75 16.54-2.22 15.1-2.66 13.96-3.1 13.15-3.5 12.6-4 12.32-3.18 8.53h-2.15l3.42-9.2 3.98-12.23 3.5-12.52 3.06-13.07 2.66-13.88 2.2-15 1.73-16.46 1.14-18.36.05-2.62z"/><path d="M494.33 558l-.02 1h-2l.03-1.03zM618.94 160.26l-9.27-.2 4.93-14.16z"/><path d="M620.3 161.3l-12.02-.26 6.4-18.37zm-9.23-2.2l6.52.13-3.07-10.1z"/><use xlink:href="#r" transform="matrix(1,0,0,1,558.9127974867357,274.2280829394339) translate(1.3012962962962966 12.444444444444446)"/><use xlink:href="#q" transform="matrix(1,0,0,1,558.9127974867357,274.2280829394339) translate(0.004999999999999005 31.111111111111118)"/><path d="M658.68 259.47l-2.66 9.54-3.14 9.66-3.72 10-4.5 10.72-5.76 12.2-42.02 74.24-9.18 17.52-6.64 14.1-5.4 12.8-4.57 12.3-3.97 12.2-3.45 12.35-3 12.76-2.55 13.4-2.1 14.22-1.6 15.32-1.05 16.72-.38 18.5-2-.05.38-18.53 1.05-16.8 1.62-15.4 2.1-14.33 2.58-13.46 3-12.84 3.48-12.45 4-12.27 4.6-12.37 5.43-12.88 6.68-14.18 9.23-17.58 42-74.2 5.7-12.1 4.47-10.64L651 278l3.1-9.57 2.64-9.46.23-.98h2.06zm6.5-92.17l.94 14.77.3 13.37-.27 12.27-.7 11.4-.17 1.55h-2l.17-1.7.7-11.33.26-12.18-.27-13.3-.93-14.68-.7-6.58 2-.2z"/><path d="M553 558l-.02 1h-2l.02-1.03zM668 159.5l-9.2 1.1 2.92-14.72z"/><path d="M669.5 160.33l-11.94 1.42 3.77-19.08zm-9.45-.9l6.48-.76-4.43-9.58z"/><use xlink:href="#s" transform="matrix(1,0,0,1,621.3288476547159,220.65171048887993) translate(0.005000000000002558 12.444444444444446)"/><use xlink:href="#t" transform="matrix(1,0,0,1,621.3288476547159,220.65171048887993) translate(16.446358024691364 31.111111111111118)"/><path d="M624.38 694.73l-4.7 4.24-4.4 3.64-4.2 3.2-4.02 2.8-3.94 2.5-3.87 2.23-3.84 2-3.82 1.8-3.86 1.63-3.9 1.45-3.96 1.3-4.06 1.13-4.17.98-4.3.83-4.5.66-4.68.48-4.93.3-5.2.12-.04-2 5.16-.1 4.84-.3 4.6-.5 4.4-.64 4.24-.8 4.1-.97 3.96-1.12 3.9-1.26 3.8-1.42 3.78-1.6 3.76-1.76 3.77-1.97 3.8-2.2 3.85-2.44 3.97-2.76 4.1-3.13 4.34-3.6 4.65-4.17 1.68-1.64h2.86zm130.6-116.38l-.97.14-4.22.8-4.1.96-3.96 1.1-3.9 1.27-3.8 1.42-3.78 1.6-3.76 1.76-3.77 1.98-3.8 2.2-3.85 2.45-3.97 2.75-4.1 3.13-4.34 3.6-4.65 4.18-5.12 5-5.88 6.28-7.4 8.6-22.77 29.43-12.55 15.97h-2.55l13.52-17.2 22.8-29.48 7.46-8.67 5.95-6.34 5.17-5.08 4.7-4.24 4.4-3.64 4.2-3.17 4.02-2.8 3.94-2.5 3.87-2.24 3.84-2 3.82-1.82 3.86-1.6 3.9-1.46 3.96-1.3 4.06-1.12 4.17-.98 4.3-.82 1.02-.15z"/><path d="M548.07 726l-1.12.07.05-1.07v-.65l-.03-.3.97-.05zM769.77 576.2l-13.86 5.73-.7-9.25z"/><path d="M773 575.95l-17.98 7.43-.93-12zm-16.2 4.53l9.75-4.03-10.25-2.47z"/><use xlink:href="#u" transform="matrix(1,0,0,1,588.4490575188448,672.9654054769437) translate(0 12.444444444444446)"/><path d="M834 697.7h-2V670.8h2zm0-45.58h-2v-45.17h2zM834 606.95h-2v-1h2zM833 712.7l-4.64-14.25h9.28z"/><path d="M833 715.95l-6-18.5h12zm-3.26-16.5l3.26 10.03 3.26-10.03z"/><use xlink:href="#v" transform="matrix(1,0,0,1,787.2407407407408,652.1177911556559) translate(0 12.444444444444446)"/><path d="M758.63 351.1l18.06 42.63 14.94 40.02 14.88 45.6 15.77 56.32-1.93.54-15.77-56.26-14.85-45.53-14.9-39.93-18.05-42.58-8.5-19h2.18zM701.47 165.2l1.13 17.58 1.6 15 1.98 13.34 2.37 12.3 2.8 11.82 3.32 11.85 4.13 12.64 5.57 14.87 9.4 20.96h-2.2l-9.05-20.2-5.6-14.96-4.16-12.7-3.36-11.94-2.8-11.9-2.4-12.38-2-13.42-1.6-15.1-1.13-17.66-.1-4.38 2-.04zM822.65 536.95h-2.07l-.2-.74 1.9-.53zM705 160.07l-9.27.2 4.34-14.37z"/><path d="M706.4 161.04l-12.03.25 5.63-18.63zm-9.32-1.8l6.52-.14-3.47-9.96z"/><use xlink:href="#w" transform="matrix(1,0,0,1,705.633591441878,295.55548723102515) translate(12.967962962962964 12.444444444444446)"/><use xlink:href="#x" transform="matrix(1,0,0,1,705.633591441878,295.55548723102515) translate(0.005000000000002558 31.111111111111118)"/><path d="M935 715.95h-2v-35.83h2zm0-73.17h-2v-17.6h2zM935 716.95h-2v-1h2zM938.64 624.45h-9.28L934 610.2z"/><path d="M940 625.45h-12l6-18.5zm-9.26-2h6.52L934 613.42z"/><use xlink:href="#y" transform="matrix(1,0,0,1,900.7716049382716,642.7828228386726) translate(6.464876543209883 12.444444444444446)"/><use xlink:href="#z" transform="matrix(1,0,0,1,900.7716049382716,642.7828228386726) translate(0.005000000000002558 31.111111111111118)"/><path d="M1043.33 715.95h-2v-29.67h2zm0-48.33h-2V625.2h2zM1043.33 716.95h-2v-1h2zM1046.97 624.45h-9.27l4.63-14.26z"/><path d="M1048.35 625.45h-12.03l6-18.5zm-9.28-2h6.52l-3.27-10.03z"/><use xlink:href="#A" transform="matrix(1,0,0,1,979.3549382716049,667.6169736638309) translate(0 12.444444444444446)"/><path d="M647.87 752.35l-3.17.74-3.13.86-2.72.88-2.4.9-2.1.88-1.9.9-1.72.9-1.55.88-1.42.9-1.3.9-1.2.9-1.1.93-1.03.93-.96.93-.9.95-.83.96-.8 1-.72 1.02-.7 1.04-.65 1.07-.6 1.1-.38.77-1.8-.9.4-.78.64-1.2.7-1.13.73-1.12.8-1.1.83-1.04.9-1.03.94-1 1.02-1 1.1-.98 1.16-.97 1.26-.96 1.37-.96 1.5-.95 1.62-.95 1.78-.93 1.98-.93 2.2-.93 2.47-.92 2.8-.9 3.2-.9 3.67-.86zm85.14-4.4v2l-23.08-.2v-2z"/><path d="M734 747.96v2h-1v-2zM620.1 773.76l-7.44 13.02-1.62-14.9z"/><path d="M621.66 773.07L612 789.95l-2.1-19.34zm-8.34 10.54l5.24-9.14-6.38-1.33z"/><use xlink:href="#B" transform="matrix(1,0,0,1,647.8672681856553,739.1164982674612) translate(0 12.444444444444446)"/><path d="M744.84 897.7l-36.1 2.07-2.43.1v-2l2.34-.1 36.1-2.06zm-131.8-39.15l.16 2.36.23 2.16.3 2 .34 1.83.4 1.7.45 1.6.48 1.5.53 1.4.56 1.35.6 1.28.63 1.22.68 1.17.72 1.13.76 1.08.8 1.06.85 1 .9 1 .95.98 1.02.96 1.08.94 1.17.92 1.25.9 1.36.9 1.47.9 1.6.88 1.76.88 1.94.86 2.16.85 2.42.85 2.73.82.9.23v2.07l-1.44-.37-2.8-.85-2.5-.87-2.24-.9-2.02-.88-1.83-.9-1.67-.94-1.54-.93-1.44-.95-1.32-.96-1.23-.98-1.14-1-1.08-1-1-1.04-.97-1.06-.9-1.1-.84-1.1-.8-1.17-.76-1.2-.72-1.24-.68-1.28-.63-1.35-.6-1.42-.56-1.5-.5-1.58-.47-1.68-.42-1.8-.35-1.92-.3-2.07-.24-2.23-.14-2.44-.06-2.66 2-.04z"/><path d="M613 855.82l-2 .27-.15-1.15h2.02zM759.77 896.08l-14.06 5.23-.38-9.25z"/><path d="M763 895.95l-18.24 6.77-.5-12zm-16.35 3.94l9.88-3.68-10.15-2.84z"/><use xlink:href="#B" transform="matrix(1,0,0,1,644.2625544271327,890.4995595881721) translate(0 12.444444444444446)"/><path d="M867.33 853.95h-2v-28.67h2zm0-47.33h-2V796.2h2zM867.33 854.95h-2v-1h2zM870.97 795.45h-9.27l4.63-14.26z"/><path d="M872.35 796.45h-12.03l6-18.5zm-9.28-2h6.52l-3.27-10.03z"/><use xlink:href="#C" transform="matrix(1,0,0,1,826.6666666666667,806.6164036695309) translate(0 12.444444444444446)"/><path d="M975.33 853.95h-2v-28.67h2zm0-47.33h-2V796.2h2zM975.33 854.95h-2v-1h2zM978.97 795.45h-9.27l4.63-14.26z"/><path d="M980.35 796.45h-12.03l6-18.5zm-9.28-2h6.52l-3.27-10.03z"/><use xlink:href="#D" transform="matrix(1,0,0,1,926.0895061728395,806.6164036695309) translate(0 12.444444444444446)"/><path d="M1074.33 535.95l.06-.9.18-1.07.4-1.32.74-1.68 1.32-2.25 2.37-3.12 4.23-4.38 7-5.77 9.28-6 8.78-4.35 6.54-2.34 1.78-.48 8.95-1.55 6.07-.12 4.6.62 3.8 1.1 3.4 1.6 3.34 2.2 3.17 2.83.6.66.68.98.84 1.48 1 2.3 1.1 3.6 1 5.2.53 6.4-.13 6.4-.7 5.48-1.03 4.33-1.17 3.33-1.24 2.57-1.26 2.02-1.25 1.6-.3.32-1.87 1.8-2.3 1.78-2.9 1.75-3.8 1.73-5.15 1.67-7.4 1.5-2.38.2" stroke="#000" stroke-width="2" fill="none"/><path d="M1075.2 536.45l-.3.5h-2.3l.87-1.5zM1122.7 570.7l-14.47-3.9 14.02-5.35z"/><path d="M1123.78 572.03l-18.78-5.08 18.18-6.92zm-12.32-5.4l10.18 2.75-.32-6.5z"/><use xlink:href="#E" transform="matrix(1,0,0,1,1080.6017325630653,478.44613538499397) translate(0 12.444444444444446)"/><path d="M413.72 669.47l1.5 3.87.1.4-1.9.57-.1-.32-1.43-3.68-4.36-8.3h2.26zm-12.5-32.65l.58 4.63.38 1.87h-2.04l-.32-1.55-.6-4.8-.22-5.93 2-.08z"/><path d="M401 630.9l-2 .22-.12-1.12h2zM416.53 688.8l-6.65-13.45 9.18-1.34z"/><path d="M417 692l-8.62-17.44 11.9-1.74zm-5.6-15.86l4.66 9.46 1.78-10.4z"/><use xlink:href="#u" transform="matrix(1,0,0,1,357.41718571176096,643.3221487515564) translate(0 12.444444444444446)"/><path d="M851.3 376.32l8.1 12.74 6.34 11 5.32 10.17 4.6 9.77 4.06 9.63 3.6 9.68 3.2 9.87 2.84 10.18 2.5 10.65 2.14 11.24 1.77 12 1.36 12.96.88 14.14.33 15.58-2 .05-.32-15.55-.87-14.06-1.35-12.87-1.75-11.93-2.13-11.16-2.48-10.55-2.82-10.1-3.17-9.78-3.57-9.6-4.02-9.55-4.57-9.7-5.28-10.1-6.32-10.93-8.06-12.68-1.93-2.76h2.43zm-99.77-204.07l1.35 12.88 1.76 11.92 2.13 11.16 2.47 10.57 2.82 10.1 3.18 9.78 3.57 9.6 4.03 9.55 4.56 9.7 5.28 10.1 6.3 10.92 8.06 12.66 26.37 36.15h-2.47L795.4 302.3l-8.12-12.74-6.36-11-5.32-10.17-4.6-9.78-4.05-9.64-3.6-9.67-3.2-9.85-2.84-10.2-2.5-10.63-2.13-11.24-1.77-12-1.36-12.96-.72-11.46 2-.13z"/><path d="M898.35 536.95h-2l-.02-.98 2-.05zM754.43 160.04l-9.26.25 4.25-14.4z"/><path d="M755.84 161l-12.02.32 5.5-18.65zm-9.32-1.75l6.5-.17-3.5-9.94z"/><use xlink:href="#F" transform="matrix(1,0,0,1,803.422246977612,337.32543400441534) translate(3.4617901234567974 12.444444444444446)"/><use xlink:href="#G" transform="matrix(1,0,0,1,803.422246977612,337.32543400441534) translate(0.005000000000002558 31.111111111111118)"/><path d="M952.32 412.57l4.94 8.55 4.36 8.34 3.9 8.27L969 446l3.12 8.4 2.8 8.6 2.46 8.83 2.15 9.2 1.84 9.65 1.5 10.18L984 511.7l.74 11.64.26 12.58-2 .05-.26-12.55-.72-11.55-1.13-10.76-1.5-10.1-1.82-9.55-2.14-9.12-2.45-8.77-2.77-8.5-3.1-8.3-3.44-8.22-3.87-8.2-4.32-8.26-4.9-8.47-5-7.87H948zM800.65 166.75l1.13 10.76 1.5 10.1 1.8 9.57 2.15 9.12 2.45 8.75 2.76 8.5 3.1 8.32 3.44 8.2 3.85 8.2 4.33 8.26 4.9 8.48 5.62 8.87 6.62 9.52 8.14 10.7 10.95 13.2 34.57 37.6 21.35 23.5h-2.7l-20.12-22.15-34.62-37.64-11-13.26-8.2-10.78-6.67-9.6-5.66-8.92-4.93-8.54-4.36-8.35-3.9-8.26-3.47-8.3-3.12-8.4-2.8-8.57-2.46-8.85-2.17-9.2-1.83-9.64-1.5-10.18-1.14-10.84-.38-5.97 2-.12z"/><path d="M985.03 536.95h-2l-.03-.98 2-.05zM803.9 160l-9.28.3 4.16-14.4z"/><path d="M805.3 160.96l-12.02.4 5.4-18.7zm-9.33-1.7l6.5-.2-3.6-9.92z"/><use xlink:href="#H" transform="matrix(1,0,0,1,901.0470217917187,368.39489809263483) translate(18.13154320987655 12.444444444444446)"/><use xlink:href="#G" transform="matrix(1,0,0,1,901.0470217917187,368.39489809263483) translate(0.005000000000002558 31.111111111111118)"/><path d="M981.43 331.52l18.04 9.93 17.35 8.6 16.2 7.24 14.83 5.86 13.34 4.65 4.52 1.38-.58 1.92-4.57-1.38-13.42-4.68-14.9-5.9-16.3-7.27-17.4-8.65-18.12-9.96-13.92-8.43v-2.34zM822.4 146.26l.24 3.73.4 3.87.6 4.05.82 4.24 1.05 4.45 1.32 4.7 1.62 4.98 1.96 5.28 2.37 5.62 2.83 6 3.37 6.45 4 6.93 4.74 7.46 5.6 8.06 6.62 8.7 7.76 9.36 9.08 10.08L887.32 261l12.16 11.4 13.8 11.92 4.33 3.42h-2.9v.25l-2.68-2.14-13.88-11.96-12.22-11.47-10.62-10.84-9.13-10.15-7.82-9.44-6.65-8.75-5.65-8.12-4.8-7.53-4.03-7-3.4-6.52-2.88-6.1-2.4-5.7-2-5.34-1.63-5.05-1.33-4.8-1.07-4.53-.82-4.32-.6-4.13-.43-3.96-.24-3.8-.07-3.67 2-.05z"/><path d="M822.33 142.6l-2 .15-.08-1.08h2zM1079.88 374.14l-14.98.66 2.47-8.93z"/><path d="M1083 375l-19.44.86 3.2-11.6zm-16.77-1.26l10.53-.47-8.8-5.8z"/><use xlink:href="#I" transform="matrix(1,0,0,1,914.697876824269,287.7402701672326) translate(0.004999999999999005 12.444444444444446)"/><use xlink:href="#J" transform="matrix(1,0,0,1,914.697876824269,287.7402701672326) translate(0.026604938271603373 31.111111111111118)"/><path d="M1157.44 320.4l-1.18 1.86-1.03 1.82-.9 1.82-.76 1.8-.67 1.85-.57 1.87-.48 1.92-.38 2-.28 2.1-.2 2.2-.05 2.4-2-.07.07-2.43.18-2.32.3-2.2.4-2.1.5-2.03.6-2 .7-1.92.82-1.92.94-1.9 1.08-1.93 1-1.6h2.44zm59.4-53.34l-.4.8-1.08 1.9-1.24 1.96-1.43 2-1.68 2.1-1.97 2.23-2.4 2.42-3.02 2.74-.83.7v-1.6h-1.23l.75-.6 2.95-2.67 2.32-2.35 1.9-2.14 1.6-2.02 1.36-1.92 1.18-1.86 1.03-1.82.36-.75z"/><path d="M1150.93 342.18l-.15.82h-2.03l.22-1.18zM1220.57 267.1l-9.03-2.07 7.7-12.88z"/><path d="M1221.7 268.38l-11.73-2.68 9.98-16.7zm-8.6-4.02l6.35 1.45-.94-10.5z"/><use xlink:href="#I" transform="matrix(1,0,0,1,1150.9868794848505,282.30612448694285) translate(0.004999999999999005 12.444444444444446)"/><use xlink:href="#J" transform="matrix(1,0,0,1,1150.9868794848505,282.30612448694285) translate(0.026604938271603373 31.111111111111118)"/><path d="M1015.73 293.48l21.66 16.5 18.92 13.2 17.06 10.84 11.77 6.82-1 1.73-11.8-6.84-17.14-10.9-19-13.24-21.7-16.55-22.1-18.35h3.12zM846.35 137.14l24.68 22.38 84.33 79.85h-2.9l-82.8-78.4-24.62-22.32-14.68-12.2 1.28-1.53z"/><path d="M831.64 124.92l-1.28 1.54-.36-.3v-2.6zM1097.84 348.84l-14.75-2.7 4.4-8.17z"/><path d="M1100.7 350.38l-19.14-3.52 5.72-10.57zm-16.07-5l10.37 1.92-7.27-7.64z"/><use xlink:href="#K" transform="matrix(1,0,0,1,931.38162569701,239.37076235691472) translate(15.538950617283955 12.444444444444446)"/><use xlink:href="#L" transform="matrix(1,0,0,1,931.38162569701,239.37076235691472) translate(0.005000000000002558 31.111111111111118)"/><path d="M1276.86 323.45l-.87 2.03-.76 2.07-.65 2.12-.55 2.2-.44 2.3-.32 2.43-.2 2.6-.08 2.83-2-.06.08-2.88.2-2.7.36-2.55.46-2.4.56-2.3.68-2.23.8-2.17.6-1.46h2.2zm51.28-56.28l-.52 1.22-1.04 2.1-1.2 2.15-1.38 2.18-1.6 2.26-1.92 2.4-2.33 2.6-3.02 3.06-.95.8h-3.13l2.73-2.28 2.9-2.93 2.27-2.55 1.84-2.3 1.54-2.18 1.32-2.1 1.15-2.04 1-2.03.5-1.16z"/><path d="M1273 342.15l-.14.85h-2.03l.18-1.15zM1331.9 267.06l-9.1-1.76 7.25-13.12z"/><path d="M1333.05 268.3l-11.8-2.28 9.42-17.02zm-8.72-3.72l6.4 1.24-1.3-10.47z"/><use xlink:href="#K" transform="matrix(1,0,0,1,1248.1393410854564,285.9535480600509) translate(15.538950617283955 12.444444444444446)"/><use xlink:href="#L" transform="matrix(1,0,0,1,1248.1393410854564,285.9535480600509) translate(0.005000000000002558 31.111111111111118)"/><path d="M1011.74 187.42l8.57 4.96 7.8 4.07 7.4 3.5 7.27 3.04 7.28 2.7 7.4 2.4 7.65 2.14 8 1.87 8.45 1.62 9.05 1.34 9.8 1.02 10.7.68 11.92.24-.04 2-11.95-.25-10.8-.67-9.88-1.04-9.13-1.34-8.54-1.63-8.08-1.9-7.73-2.15-7.48-2.43-7.36-2.75-7.35-3.08-7.5-3.53-7.85-4.1-8.65-5-8.78-5.6h3.73zM853.77 111.6l9.88 1.02 9.13 1.35 8.54 1.63 8.08 1.9 7.73 2.15 7.48 2.43 7.36 2.73 7.35 3.1 7.5 3.53 7.85 4.1 8.65 5 8.92 5.68h-3.73l-6.24-3.95-8.57-4.96-7.8-4.08-7.4-3.5-7.27-3.05-7.28-2.7-7.4-2.4-7.65-2.14-8-1.87-8.45-1.62-9.05-1.33-9.8-1.02-4.44-.28.12-2z"/><path d="M1124 217.03v2l-1.03-.03.05-2zM848.33 116.9l-14.1-5.12 14.42-4.13z"/><path d="M849.28 118.32L831 111.67l18.7-5.36zm-11.8-6.43l9.9 3.6.23-6.5z"/><g><use xlink:href="#M" transform="matrix(1,0,0,1,925.1783005711642,146.21197898186614) translate(17.74265432098767 12.444444444444446)"/><use xlink:href="#N" transform="matrix(1,0,0,1,925.1783005711642,146.21197898186614) translate(0.005000000000002558 31.111111111111118)"/></g><path d="M1107.24 104.7l17.9 4.14 16.34 4.52 15.2 4.9 14.3 5.28 13.66 5.7 13.18 6.16 12.82 6.67 12.6 7.23 12.45 7.87 12.42 8.6 12.48 9.43-1.2 1.6-12.45-9.4-12.36-8.56-12.4-7.82-12.52-7.2-12.75-6.62-13.1-6.13-13.58-5.67-14.24-5.26-15.1-4.86-16.25-4.5-17.82-4.13-10.38-1.95v-2.03zM997 92.37l14.97.88v2l-15.03-.88-77.66-1.13-70.04.33v-2l70.05-.33zM1262.98 177h-3.32l-.27-.2 1.2-1.6zM848.52 97.22l-14.28-4.57 14.24-4.7z"/><path d="M849.53 98.6L831 92.66l18.47-6.1zm-12.06-5.96l10.05 3.2-.03-6.5z"/><g><use xlink:href="#O" transform="matrix(1,0,0,1,1011.9706728617458,78.90459749159865) translate(12.92475308641976 12.444444444444446)"/><use xlink:href="#L" transform="matrix(1,0,0,1,1011.9706728617458,78.90459749159865) translate(0.005000000000002558 31.111111111111118)"/></g><defs><path d="M195 0l-74-108L45 0H8l94-129-87-119h37l69 98 67-98h37l-84 118L233 0h-38" id="P"/><path d="M140-251c81 0 123 46 123 126C263-53 228-8 163 1c7 30 30 48 69 40v23c-55 16-95-15-103-61C56-3 17-48 17-125c0-80 42-126 123-126zm0 227c63 0 89-41 89-101s-29-99-89-99c-61 0-89 39-89 99S79-25 140-24" id="Q"/><path d="M127-220V0H93v-220H8v-28h204v28h-85" id="R"/><path d="M185-189c-5-48-123-54-124 2 14 75 158 14 163 119 3 78-121 87-175 55-17-10-28-26-33-46l33-7c5 56 141 63 141-1 0-78-155-14-162-118-5-82 145-84 179-34 5 7 8 16 11 25" id="S"/><path d="M233-177c-1 41-23 64-60 70L243 0h-38l-65-103H63V0H30v-248c88 3 205-21 203 71zM63-129c60-2 137 13 137-47 0-61-80-42-137-45v92" id="T"/><path d="M84 4C-5 8 30-112 23-190h32v120c0 31 7 50 39 49 72-2 45-101 50-169h31l1 190h-30c-1-10 1-25-2-33-11 22-28 36-60 37" id="U"/><path d="M117-194c89-4 53 116 60 194h-32v-121c0-31-8-49-39-48C34-167 62-67 57 0H25l-1-190h30c1 10-1 24 2 32 11-22 29-35 61-36" id="V"/><path d="M100-194c63 0 86 42 84 106H49c0 40 14 67 53 68 26 1 43-12 49-29l28 8c-11 28-37 45-77 45C44 4 14-33 15-96c1-61 26-98 85-98zm52 81c6-60-76-77-97-28-3 7-6 17-6 28h103" id="W"/><path d="M114-163C36-179 61-72 57 0H25l-1-190h30c1 12-1 29 2 39 6-27 23-49 58-41v29" id="X"/><path d="M205 0l-28-72H64L36 0H1l101-248h38L239 0h-34zm-38-99l-47-123c-12 45-31 82-46 123h93" id="Y"/><path d="M96-169c-40 0-48 33-48 73s9 75 48 75c24 0 41-14 43-38l32 2c-6 37-31 61-74 61-59 0-76-41-82-99-10-93 101-131 147-64 4 7 5 14 7 22l-32 3c-4-21-16-35-41-35" id="Z"/><path d="M59-47c-2 24 18 29 38 22v24C64 9 27 4 27-40v-127H5v-23h24l9-43h21v43h35v23H59v120" id="aa"/><path d="M100-194c62-1 85 37 85 99 1 63-27 99-86 99S16-35 15-95c0-66 28-99 85-99zM99-20c44 1 53-31 53-75 0-43-8-75-51-75s-53 32-53 75 10 74 51 75" id="ab"/><g id="a"><use transform="matrix(0.05,0,0,0.05,0,0)" xlink:href="#P"/><use transform="matrix(0.05,0,0,0.05,12,0)" xlink:href="#Q"/><use transform="matrix(0.05,0,0,0.05,26,0)" xlink:href="#R"/><use transform="matrix(0.05,0,0,0.05,36.95,0)" xlink:href="#S"/><use transform="matrix(0.05,0,0,0.05,48.95,0)" xlink:href="#T"/><use transform="matrix(0.05,0,0,0.05,61.900000000000006,0)" xlink:href="#U"/><use transform="matrix(0.05,0,0,0.05,71.9,0)" xlink:href="#V"/><use transform="matrix(0.05,0,0,0.05,81.9,0)" xlink:href="#V"/><use transform="matrix(0.05,0,0,0.05,91.9,0)" xlink:href="#W"/><use transform="matrix(0.05,0,0,0.05,101.9,0)" xlink:href="#X"/><use transform="matrix(0.05,0,0,0.05,107.85000000000001,0)" xlink:href="#Y"/><use transform="matrix(0.05,0,0,0.05,119.85000000000001,0)" xlink:href="#Z"/><use transform="matrix(0.05,0,0,0.05,128.85000000000002,0)" xlink:href="#aa"/><use transform="matrix(0.05,0,0,0.05,133.85000000000002,0)" xlink:href="#ab"/><use transform="matrix(0.05,0,0,0.05,143.85000000000002,0)" xlink:href="#X"/></g><path d="M153-248C145-148 188 4 80 4 36 3 13-21 6-62l32-5c4 25 16 42 43 43 27 0 39-20 39-49v-147H72v-28h81" id="ac"/><path d="M232-93c-1 65-40 97-104 97C67 4 28-28 28-90v-158h33c8 89-33 224 67 224 102 0 64-133 71-224h33v155" id="ad"/><path d="M24-231v-30h32v30H24zM24 0v-190h32V0H24" id="ae"/><path d="M135-143c-3-34-86-38-87 0 15 53 115 12 119 90S17 21 10-45l28-5c4 36 97 45 98 0-10-56-113-15-118-90-4-57 82-63 122-42 12 7 21 19 24 35" id="af"/><path d="M24 0v-261h32V0H24" id="ag"/><path d="M141-36C126-15 110 5 73 4 37 3 15-17 15-53c-1-64 63-63 125-63 3-35-9-54-41-54-24 1-41 7-42 31l-33-3c5-37 33-52 76-52 45 0 72 20 72 64v82c-1 20 7 32 28 27v20c-31 9-61-2-59-35zM48-53c0 20 12 33 32 33 41-3 63-29 60-74-43 2-92-5-92 41" id="ah"/><path d="M9 0v-24l116-142H16v-24h144v24L44-24h123V0H9" id="ai"/><g id="b"><use transform="matrix(0.05,0,0,0.05,0,0)" xlink:href="#ac"/><use transform="matrix(0.05,0,0,0.05,9,0)" xlink:href="#ad"/><use transform="matrix(0.05,0,0,0.05,21.950000000000003,0)" xlink:href="#V"/><use transform="matrix(0.05,0,0,0.05,31.950000000000003,0)" xlink:href="#ae"/><use transform="matrix(0.05,0,0,0.05,35.900000000000006,0)" xlink:href="#aa"/><use transform="matrix(0.05,0,0,0.05,40.900000000000006,0)" xlink:href="#T"/><use transform="matrix(0.05,0,0,0.05,53.85,0)" xlink:href="#W"/><use transform="matrix(0.05,0,0,0.05,63.85,0)" xlink:href="#af"/><use transform="matrix(0.05,0,0,0.05,72.85000000000001,0)" xlink:href="#U"/><use transform="matrix(0.05,0,0,0.05,82.85000000000001,0)" xlink:href="#ag"/><use transform="matrix(0.05,0,0,0.05,86.80000000000001,0)" xlink:href="#aa"/><use transform="matrix(0.05,0,0,0.05,91.80000000000001,0)" xlink:href="#af"/><use transform="matrix(0.05,0,0,0.05,100.80000000000001,0)" xlink:href="#S"/><use transform="matrix(0.05,0,0,0.05,112.80000000000001,0)" xlink:href="#W"/><use transform="matrix(0.05,0,0,0.05,122.80000000000001,0)" xlink:href="#X"/><use transform="matrix(0.05,0,0,0.05,128.75,0)" xlink:href="#ae"/><use transform="matrix(0.05,0,0,0.05,132.7,0)" xlink:href="#ah"/><use transform="matrix(0.05,0,0,0.05,142.7,0)" xlink:href="#ag"/><use transform="matrix(0.05,0,0,0.05,146.64999999999998,0)" xlink:href="#ae"/><use transform="matrix(0.05,0,0,0.05,150.59999999999997,0)" xlink:href="#ai"/><use transform="matrix(0.05,0,0,0.05,159.59999999999997,0)" xlink:href="#W"/><use transform="matrix(0.05,0,0,0.05,169.59999999999997,0)" xlink:href="#X"/><use transform="matrix(0.05,0,0,0.05,175.54999999999995,0)" xlink:href="#T"/><use transform="matrix(0.05,0,0,0.05,188.49999999999994,0)" xlink:href="#ab"/><use transform="matrix(0.05,0,0,0.05,198.49999999999994,0)" xlink:href="#U"/><use transform="matrix(0.05,0,0,0.05,208.49999999999991,0)" xlink:href="#aa"/><use transform="matrix(0.05,0,0,0.05,213.49999999999991,0)" xlink:href="#W"/><use transform="matrix(0.05,0,0,0.05,223.49999999999991,0)" xlink:href="#X"/></g><g id="c"><use transform="matrix(0.05,0,0,0.05,0,0)" xlink:href="#Y"/><use transform="matrix(0.05,0,0,0.05,12,0)" xlink:href="#Z"/><use transform="matrix(0.05,0,0,0.05,21,0)" xlink:href="#aa"/><use transform="matrix(0.05,0,0,0.05,26,0)" xlink:href="#ab"/><use transform="matrix(0.05,0,0,0.05,36,0)" xlink:href="#X"/></g><g id="d"><use transform="matrix(0.04938271604938272,0,0,0.04938271604938272,0,0)" xlink:href="#ac"/><use transform="matrix(0.04938271604938272,0,0,0.04938271604938272,8.88888888888889,0)" xlink:href="#ad"/><use transform="matrix(0.04938271604938272,0,0,0.04938271604938272,21.679012345679013,0)" xlink:href="#V"/><use transform="matrix(0.04938271604938272,0,0,0.04938271604938272,31.555555555555557,0)" xlink:href="#ae"/><use transform="matrix(0.04938271604938272,0,0,0.04938271604938272,35.45679012345679,0)" xlink:href="#aa"/><use transform="matrix(0.04938271604938272,0,0,0.04938271604938272,40.39506172839506,0)" xlink:href="#T"/><use transform="matrix(0.04938271604938272,0,0,0.04938271604938272,53.18518518518519,0)" xlink:href="#W"/><use transform="matrix(0.04938271604938272,0,0,0.04938271604938272,63.061728395061735,0)" xlink:href="#af"/><use transform="matrix(0.04938271604938272,0,0,0.04938271604938272,71.95061728395062,0)" xlink:href="#U"/><use transform="matrix(0.04938271604938272,0,0,0.04938271604938272,81.82716049382717,0)" xlink:href="#ag"/><use transform="matrix(0.04938271604938272,0,0,0.04938271604938272,85.7283950617284,0)" xlink:href="#aa"/><use transform="matrix(0.04938271604938272,0,0,0.04938271604938272,90.66666666666669,0)" xlink:href="#af"/><use transform="matrix(0.04938271604938272,0,0,0.04938271604938272,99.55555555555557,0)" xlink:href="#S"/><use transform="matrix(0.04938271604938272,0,0,0.04938271604938272,111.40740740740742,0)" xlink:href="#W"/><use transform="matrix(0.04938271604938272,0,0,0.04938271604938272,121.28395061728396,0)" xlink:href="#X"/><use transform="matrix(0.04938271604938272,0,0,0.04938271604938272,127.16049382716051,0)" xlink:href="#ae"/><use transform="matrix(0.04938271604938272,0,0,0.04938271604938272,131.06172839506175,0)" xlink:href="#ah"/><use transform="matrix(0.04938271604938272,0,0,0.04938271604938272,140.93827160493828,0)" xlink:href="#ag"/><use transform="matrix(0.04938271604938272,0,0,0.04938271604938272,144.83950617283952,0)" xlink:href="#ae"/><use transform="matrix(0.04938271604938272,0,0,0.04938271604938272,148.74074074074076,0)" xlink:href="#ai"/><use transform="matrix(0.04938271604938272,0,0,0.04938271604938272,157.62962962962965,0)" xlink:href="#W"/><use transform="matrix(0.04938271604938272,0,0,0.04938271604938272,167.50617283950618,0)" xlink:href="#X"/><use transform="matrix(0.04938271604938272,0,0,0.04938271604938272,173.3827160493827,0)" xlink:href="#Y"/><use transform="matrix(0.04938271604938272,0,0,0.04938271604938272,185.23456790123456,0)" xlink:href="#Z"/><use transform="matrix(0.04938271604938272,0,0,0.04938271604938272,194.12345679012344,0)" xlink:href="#aa"/><use transform="matrix(0.04938271604938272,0,0,0.04938271604938272,199.06172839506172,0)" xlink:href="#ab"/><use transform="matrix(0.04938271604938272,0,0,0.04938271604938272,208.93827160493828,0)" xlink:href="#X"/></g><path d="M85-194c31 0 48 13 60 33l-1-100h32l1 261h-30c-2-10 0-23-3-31C134-8 116 4 85 4 32 4 16-35 15-94c0-66 23-100 70-100zm9 24c-40 0-46 34-46 75 0 40 6 74 45 74 42 0 51-32 51-76 0-42-9-74-50-73" id="aj"/><path d="M63-220v92h138v28H63V0H30v-248h175v28H63" id="ak"/><g id="e"><use transform="matrix(0.05,0,0,0.05,0,0)" xlink:href="#T"/><use transform="matrix(0.05,0,0,0.05,12.950000000000001,0)" xlink:href="#W"/><use transform="matrix(0.05,0,0,0.05,22.950000000000003,0)" xlink:href="#ah"/><use transform="matrix(0.05,0,0,0.05,32.95,0)" xlink:href="#aj"/><use transform="matrix(0.05,0,0,0.05,42.95,0)" xlink:href="#ak"/><use transform="matrix(0.05,0,0,0.05,53.900000000000006,0)" xlink:href="#ae"/><use transform="matrix(0.05,0,0,0.05,57.85,0)" xlink:href="#ag"/><use transform="matrix(0.05,0,0,0.05,61.80000000000001,0)" xlink:href="#W"/><use transform="matrix(0.05,0,0,0.05,71.80000000000001,0)" xlink:href="#T"/><use transform="matrix(0.05,0,0,0.05,84.75000000000001,0)" xlink:href="#ab"/><use transform="matrix(0.05,0,0,0.05,94.75000000000001,0)" xlink:href="#U"/><use transform="matrix(0.05,0,0,0.05,104.75,0)" xlink:href="#aa"/><use transform="matrix(0.05,0,0,0.05,109.75,0)" xlink:href="#W"/><use transform="matrix(0.05,0,0,0.05,119.75,0)" xlink:href="#X"/></g><g id="f"><use transform="matrix(0.04938271604938272,0,0,0.04938271604938272,0,0)" xlink:href="#T"/><use transform="matrix(0.04938271604938272,0,0,0.04938271604938272,12.790123456790125,0)" xlink:href="#W"/><use transform="matrix(0.04938271604938272,0,0,0.04938271604938272,22.66666666666667,0)" xlink:href="#ah"/><use transform="matrix(0.04938271604938272,0,0,0.04938271604938272,32.543209876543216,0)" xlink:href="#aj"/><use transform="matrix(0.04938271604938272,0,0,0.04938271604938272,42.41975308641976,0)" xlink:href="#ak"/><use transform="matrix(0.04938271604938272,0,0,0.04938271604938272,53.23456790123457,0)" xlink:href="#ae"/><use transform="matrix(0.04938271604938272,0,0,0.04938271604938272,57.135802469135804,0)" xlink:href="#ag"/><use transform="matrix(0.04938271604938272,0,0,0.04938271604938272,61.037037037037045,0)" xlink:href="#W"/><use transform="matrix(0.04938271604938272,0,0,0.04938271604938272,70.9135802469136,0)" xlink:href="#Y"/><use transform="matrix(0.04938271604938272,0,0,0.04938271604938272,82.76543209876544,0)" xlink:href="#Z"/><use transform="matrix(0.04938271604938272,0,0,0.04938271604938272,91.65432098765433,0)" xlink:href="#aa"/><use transform="matrix(0.04938271604938272,0,0,0.04938271604938272,96.59259259259261,0)" xlink:href="#ab"/><use transform="matrix(0.04938271604938272,0,0,0.04938271604938272,106.46913580246914,0)" xlink:href="#X"/></g><path d="M212-179c-10-28-35-45-73-45-59 0-87 40-87 99 0 60 29 101 89 101 43 0 62-24 78-52l27 14C228-24 195 4 139 4 59 4 22-46 18-125c-6-104 99-153 187-111 19 9 31 26 39 46" id="al"/><path d="M210-169c-67 3-38 105-44 169h-31v-121c0-29-5-50-35-48C34-165 62-65 56 0H25l-1-190h30c1 10-1 24 2 32 10-44 99-50 107 0 11-21 27-35 58-36 85-2 47 119 55 194h-31v-121c0-29-5-49-35-48" id="am"/><path d="M106-169C34-169 62-67 57 0H25v-261h32l-1 103c12-21 28-36 61-36 89 0 53 116 60 194h-32v-121c2-32-8-49-39-48" id="an"/><g id="g"><use transform="matrix(0.05,0,0,0.05,0,0)" xlink:href="#al"/><use transform="matrix(0.05,0,0,0.05,12.950000000000001,0)" xlink:href="#ab"/><use transform="matrix(0.05,0,0,0.05,22.950000000000003,0)" xlink:href="#am"/><use transform="matrix(0.05,0,0,0.05,37.900000000000006,0)" xlink:href="#am"/><use transform="matrix(0.05,0,0,0.05,52.85,0)" xlink:href="#ab"/><use transform="matrix(0.05,0,0,0.05,62.85,0)" xlink:href="#V"/><use transform="matrix(0.05,0,0,0.05,72.85000000000001,0)" xlink:href="#T"/><use transform="matrix(0.05,0,0,0.05,85.80000000000001,0)" xlink:href="#W"/><use transform="matrix(0.05,0,0,0.05,95.80000000000001,0)" xlink:href="#af"/><use transform="matrix(0.05,0,0,0.05,104.80000000000001,0)" xlink:href="#ab"/><use transform="matrix(0.05,0,0,0.05,114.80000000000001,0)" xlink:href="#U"/><use transform="matrix(0.05,0,0,0.05,124.80000000000001,0)" xlink:href="#X"/><use transform="matrix(0.05,0,0,0.05,130.75,0)" xlink:href="#Z"/><use transform="matrix(0.05,0,0,0.05,139.75,0)" xlink:href="#W"/><use transform="matrix(0.05,0,0,0.05,149.75,0)" xlink:href="#al"/><use transform="matrix(0.05,0,0,0.05,162.7,0)" xlink:href="#ah"/><use transform="matrix(0.05,0,0,0.05,172.7,0)" xlink:href="#Z"/><use transform="matrix(0.05,0,0,0.05,181.7,0)" xlink:href="#an"/><use transform="matrix(0.05,0,0,0.05,191.7,0)" xlink:href="#W"/><use transform="matrix(0.05,0,0,0.05,201.7,0)" xlink:href="#Y"/><use transform="matrix(0.05,0,0,0.05,213.69999999999996,0)" xlink:href="#Z"/><use transform="matrix(0.05,0,0,0.05,222.69999999999996,0)" xlink:href="#aa"/><use transform="matrix(0.05,0,0,0.05,227.69999999999996,0)" xlink:href="#ab"/><use transform="matrix(0.05,0,0,0.05,237.69999999999996,0)" xlink:href="#X"/></g><g id="h"><use transform="matrix(0.05,0,0,0.05,0,0)" xlink:href="#R"/><use transform="matrix(0.05,0,0,0.05,8.950000000000001,0)" xlink:href="#W"/><use transform="matrix(0.05,0,0,0.05,18.950000000000003,0)" xlink:href="#af"/><use transform="matrix(0.05,0,0,0.05,27.950000000000003,0)" xlink:href="#aa"/><use transform="matrix(0.05,0,0,0.05,32.95,0)" xlink:href="#al"/><use transform="matrix(0.05,0,0,0.05,45.900000000000006,0)" xlink:href="#ah"/><use transform="matrix(0.05,0,0,0.05,55.900000000000006,0)" xlink:href="#af"/><use transform="matrix(0.05,0,0,0.05,64.9,0)" xlink:href="#W"/><use transform="matrix(0.05,0,0,0.05,74.9,0)" xlink:href="#T"/><use transform="matrix(0.05,0,0,0.05,87.85000000000001,0)" xlink:href="#U"/><use transform="matrix(0.05,0,0,0.05,97.85000000000001,0)" xlink:href="#V"/><use transform="matrix(0.05,0,0,0.05,107.85000000000001,0)" xlink:href="#V"/><use transform="matrix(0.05,0,0,0.05,117.85000000000001,0)" xlink:href="#W"/><use transform="matrix(0.05,0,0,0.05,127.85000000000001,0)" xlink:href="#X"/><use transform="matrix(0.05,0,0,0.05,133.8,0)" xlink:href="#T"/><use transform="matrix(0.05,0,0,0.05,146.75,0)" xlink:href="#ab"/><use transform="matrix(0.05,0,0,0.05,156.75,0)" xlink:href="#U"/><use transform="matrix(0.05,0,0,0.05,166.75,0)" xlink:href="#aa"/><use transform="matrix(0.05,0,0,0.05,171.75,0)" xlink:href="#W"/><use transform="matrix(0.05,0,0,0.05,181.75,0)" xlink:href="#X"/></g><g id="i"><use transform="matrix(0.04938271604938272,0,0,0.04938271604938272,0,0)" xlink:href="#R"/><use transform="matrix(0.04938271604938272,0,0,0.04938271604938272,8.839506172839506,0)" xlink:href="#W"/><use transform="matrix(0.04938271604938272,0,0,0.04938271604938272,18.71604938271605,0)" xlink:href="#af"/><use transform="matrix(0.04938271604938272,0,0,0.04938271604938272,27.60493827160494,0)" xlink:href="#aa"/><use transform="matrix(0.04938271604938272,0,0,0.04938271604938272,32.543209876543216,0)" xlink:href="#al"/><use transform="matrix(0.04938271604938272,0,0,0.04938271604938272,45.33333333333334,0)" xlink:href="#ah"/><use transform="matrix(0.04938271604938272,0,0,0.04938271604938272,55.209876543209894,0)" xlink:href="#af"/><use transform="matrix(0.04938271604938272,0,0,0.04938271604938272,64.09876543209877,0)" xlink:href="#W"/><use transform="matrix(0.04938271604938272,0,0,0.04938271604938272,73.97530864197532,0)" xlink:href="#T"/><use transform="matrix(0.04938271604938272,0,0,0.04938271604938272,86.76543209876544,0)" xlink:href="#U"/><use transform="matrix(0.04938271604938272,0,0,0.04938271604938272,96.64197530864199,0)" xlink:href="#V"/><use transform="matrix(0.04938271604938272,0,0,0.04938271604938272,106.51851851851853,0)" xlink:href="#V"/><use transform="matrix(0.04938271604938272,0,0,0.04938271604938272,116.39506172839508,0)" xlink:href="#W"/><use transform="matrix(0.04938271604938272,0,0,0.04938271604938272,126.27160493827162,0)" xlink:href="#X"/><use transform="matrix(0.04938271604938272,0,0,0.04938271604938272,132.14814814814815,0)" xlink:href="#Y"/><use transform="matrix(0.04938271604938272,0,0,0.04938271604938272,144,0)" xlink:href="#Z"/><use transform="matrix(0.04938271604938272,0,0,0.04938271604938272,152.88888888888889,0)" xlink:href="#aa"/><use transform="matrix(0.04938271604938272,0,0,0.04938271604938272,157.82716049382717,0)" xlink:href="#ab"/><use transform="matrix(0.04938271604938272,0,0,0.04938271604938272,167.7037037037037,0)" xlink:href="#X"/></g><path d="M126-127c33 6 58 20 58 59 0 88-139 92-164 29-3-8-5-16-6-25l32-3c6 27 21 44 54 44 32 0 52-15 52-46 0-38-36-46-79-43v-28c39 1 72-4 72-42 0-27-17-43-46-43-28 0-47 15-49 41l-32-3c6-42 35-63 81-64 48-1 79 21 79 65 0 36-21 52-52 59" id="ao"/><path d="M30-248c87 1 191-15 191 75 0 78-77 80-158 76V0H30v-248zm33 125c57 0 124 11 124-50 0-59-68-47-124-48v98" id="ap"/><g id="j"><use transform="matrix(0.05,0,0,0.05,0,0)" xlink:href="#P"/><use transform="matrix(0.05,0,0,0.05,12,0)" xlink:href="#Q"/><use transform="matrix(0.05,0,0,0.05,26,0)" xlink:href="#R"/><use transform="matrix(0.05,0,0,0.05,36.95,0)" xlink:href="#S"/><use transform="matrix(0.05,0,0,0.05,48.95,0)" xlink:href="#ao"/><use transform="matrix(0.05,0,0,0.05,58.95,0)" xlink:href="#R"/><use transform="matrix(0.05,0,0,0.05,67.9,0)" xlink:href="#W"/><use transform="matrix(0.05,0,0,0.05,77.9,0)" xlink:href="#af"/><use transform="matrix(0.05,0,0,0.05,86.9,0)" xlink:href="#aa"/><use transform="matrix(0.05,0,0,0.05,91.9,0)" xlink:href="#S"/><use transform="matrix(0.05,0,0,0.05,103.9,0)" xlink:href="#W"/><use transform="matrix(0.05,0,0,0.05,113.9,0)" xlink:href="#aa"/><use transform="matrix(0.05,0,0,0.05,118.9,0)" xlink:href="#ap"/><use transform="matrix(0.05,0,0,0.05,130.9,0)" xlink:href="#ah"/><use transform="matrix(0.05,0,0,0.05,140.9,0)" xlink:href="#X"/><use transform="matrix(0.05,0,0,0.05,146.85,0)" xlink:href="#af"/><use transform="matrix(0.05,0,0,0.05,155.85,0)" xlink:href="#W"/><use transform="matrix(0.05,0,0,0.05,165.85,0)" xlink:href="#X"/><use transform="matrix(0.05,0,0,0.05,171.79999999999998,0)" xlink:href="#T"/><use transform="matrix(0.05,0,0,0.05,184.74999999999997,0)" xlink:href="#ab"/><use transform="matrix(0.05,0,0,0.05,194.74999999999997,0)" xlink:href="#U"/><use transform="matrix(0.05,0,0,0.05,204.74999999999997,0)" xlink:href="#aa"/><use transform="matrix(0.05,0,0,0.05,209.74999999999997,0)" xlink:href="#W"/><use transform="matrix(0.05,0,0,0.05,219.74999999999997,0)" xlink:href="#X"/></g><g id="k"><use transform="matrix(0.04938271604938272,0,0,0.04938271604938272,0,0)" xlink:href="#P"/><use transform="matrix(0.04938271604938272,0,0,0.04938271604938272,11.851851851851853,0)" xlink:href="#Q"/><use transform="matrix(0.04938271604938272,0,0,0.04938271604938272,25.679012345679016,0)" xlink:href="#R"/><use transform="matrix(0.04938271604938272,0,0,0.04938271604938272,36.49382716049383,0)" xlink:href="#S"/><use transform="matrix(0.04938271604938272,0,0,0.04938271604938272,48.345679012345684,0)" xlink:href="#ao"/><use transform="matrix(0.04938271604938272,0,0,0.04938271604938272,58.22222222222223,0)" xlink:href="#R"/><use transform="matrix(0.04938271604938272,0,0,0.04938271604938272,67.06172839506173,0)" xlink:href="#W"/><use transform="matrix(0.04938271604938272,0,0,0.04938271604938272,76.93827160493828,0)" xlink:href="#af"/><use transform="matrix(0.04938271604938272,0,0,0.04938271604938272,85.82716049382717,0)" xlink:href="#aa"/><use transform="matrix(0.04938271604938272,0,0,0.04938271604938272,90.76543209876544,0)" xlink:href="#S"/><use transform="matrix(0.04938271604938272,0,0,0.04938271604938272,102.61728395061729,0)" xlink:href="#W"/><use transform="matrix(0.04938271604938272,0,0,0.04938271604938272,112.49382716049384,0)" xlink:href="#aa"/><use transform="matrix(0.04938271604938272,0,0,0.04938271604938272,117.43209876543212,0)" xlink:href="#ap"/><use transform="matrix(0.04938271604938272,0,0,0.04938271604938272,129.28395061728395,0)" xlink:href="#ah"/><use transform="matrix(0.04938271604938272,0,0,0.04938271604938272,139.1604938271605,0)" xlink:href="#X"/><use transform="matrix(0.04938271604938272,0,0,0.04938271604938272,145.03703703703704,0)" xlink:href="#af"/><use transform="matrix(0.04938271604938272,0,0,0.04938271604938272,153.92592592592592,0)" xlink:href="#W"/><use transform="matrix(0.04938271604938272,0,0,0.04938271604938272,163.80246913580248,0)" xlink:href="#X"/><use transform="matrix(0.04938271604938272,0,0,0.04938271604938272,169.679012345679,0)" xlink:href="#Y"/><use transform="matrix(0.04938271604938272,0,0,0.04938271604938272,181.53086419753086,0)" xlink:href="#Z"/><use transform="matrix(0.04938271604938272,0,0,0.04938271604938272,190.41975308641975,0)" xlink:href="#aa"/><use transform="matrix(0.04938271604938272,0,0,0.04938271604938272,195.35802469135803,0)" xlink:href="#ab"/><use transform="matrix(0.04938271604938272,0,0,0.04938271604938272,205.23456790123458,0)" xlink:href="#X"/></g><path d="M177-190C167-65 218 103 67 71c-23-6-38-20-44-43l32-5c15 47 100 32 89-28v-30C133-14 115 1 83 1 29 1 15-40 15-95c0-56 16-97 71-98 29-1 48 16 59 35 1-10 0-23 2-32h30zM94-22c36 0 50-32 50-73 0-42-14-75-50-75-39 0-46 34-46 75s6 73 46 73" id="aq"/><g id="l"><use transform="matrix(0.05,0,0,0.05,0,0)" xlink:href="#P"/><use transform="matrix(0.05,0,0,0.05,12,0)" xlink:href="#Q"/><use transform="matrix(0.05,0,0,0.05,26,0)" xlink:href="#R"/><use transform="matrix(0.05,0,0,0.05,36.95,0)" xlink:href="#S"/><use transform="matrix(0.05,0,0,0.05,48.95,0)" xlink:href="#ao"/><use transform="matrix(0.05,0,0,0.05,58.95,0)" xlink:href="#al"/><use transform="matrix(0.05,0,0,0.05,71.9,0)" xlink:href="#ah"/><use transform="matrix(0.05,0,0,0.05,81.9,0)" xlink:href="#aa"/><use transform="matrix(0.05,0,0,0.05,86.9,0)" xlink:href="#ah"/><use transform="matrix(0.05,0,0,0.05,96.9,0)" xlink:href="#ag"/><use transform="matrix(0.05,0,0,0.05,100.85000000000001,0)" xlink:href="#ab"/><use transform="matrix(0.05,0,0,0.05,110.85000000000001,0)" xlink:href="#aq"/><use transform="matrix(0.05,0,0,0.05,120.85000000000001,0)" xlink:href="#ap"/><use transform="matrix(0.05,0,0,0.05,132.85000000000002,0)" xlink:href="#ah"/><use transform="matrix(0.05,0,0,0.05,142.85000000000002,0)" xlink:href="#X"/><use transform="matrix(0.05,0,0,0.05,148.8,0)" xlink:href="#af"/><use transform="matrix(0.05,0,0,0.05,157.8,0)" xlink:href="#W"/><use transform="matrix(0.05,0,0,0.05,167.8,0)" xlink:href="#X"/><use transform="matrix(0.05,0,0,0.05,173.75,0)" xlink:href="#Y"/><use transform="matrix(0.05,0,0,0.05,185.75,0)" xlink:href="#Z"/><use transform="matrix(0.05,0,0,0.05,194.75,0)" xlink:href="#aa"/><use transform="matrix(0.05,0,0,0.05,199.75,0)" xlink:href="#ab"/><use transform="matrix(0.05,0,0,0.05,209.75,0)" xlink:href="#X"/></g><g id="m"><use transform="matrix(0.04320987654320988,0,0,0.04320987654320988,0,0)" xlink:href="#ap"/><use transform="matrix(0.04320987654320988,0,0,0.04320987654320988,10.370370370370372,0)" xlink:href="#ah"/><use transform="matrix(0.04320987654320988,0,0,0.04320987654320988,19.01234567901235,0)" xlink:href="#X"/><use transform="matrix(0.04320987654320988,0,0,0.04320987654320988,24.154320987654323,0)" xlink:href="#af"/><use transform="matrix(0.04320987654320988,0,0,0.04320987654320988,31.9320987654321,0)" xlink:href="#W"/></g><path d="M115-194c55 1 70 41 70 98S169 2 115 4C84 4 66-9 55-30l1 105H24l-1-265h31l2 30c10-21 28-34 59-34zm-8 174c40 0 45-34 45-75s-6-73-45-74c-42 0-51 32-51 76 0 43 10 73 51 73" id="ar"/><g id="n"><use transform="matrix(0.04320987654320988,0,0,0.04320987654320988,0,0)" xlink:href="#ap"/><use transform="matrix(0.04320987654320988,0,0,0.04320987654320988,10.370370370370372,0)" xlink:href="#ah"/><use transform="matrix(0.04320987654320988,0,0,0.04320987654320988,19.01234567901235,0)" xlink:href="#X"/><use transform="matrix(0.04320987654320988,0,0,0.04320987654320988,24.154320987654323,0)" xlink:href="#af"/><use transform="matrix(0.04320987654320988,0,0,0.04320987654320988,31.9320987654321,0)" xlink:href="#W"/><use transform="matrix(0.04320987654320988,0,0,0.04320987654320988,40.574074074074076,0)" xlink:href="#al"/><use transform="matrix(0.04320987654320988,0,0,0.04320987654320988,51.76543209876544,0)" xlink:href="#ab"/><use transform="matrix(0.04320987654320988,0,0,0.04320987654320988,60.40740740740741,0)" xlink:href="#am"/><use transform="matrix(0.04320987654320988,0,0,0.04320987654320988,73.32716049382717,0)" xlink:href="#ar"/><use transform="matrix(0.04320987654320988,0,0,0.04320987654320988,81.96913580246914,0)" xlink:href="#ag"/><use transform="matrix(0.04320987654320988,0,0,0.04320987654320988,85.38271604938272,0)" xlink:href="#W"/><use transform="matrix(0.04320987654320988,0,0,0.04320987654320988,94.0246913580247,0)" xlink:href="#aa"/><use transform="matrix(0.04320987654320988,0,0,0.04320987654320988,98.34567901234568,0)" xlink:href="#W"/></g><g id="o"><use transform="matrix(0.04320987654320988,0,0,0.04320987654320988,0,0)" xlink:href="#ap"/><use transform="matrix(0.04320987654320988,0,0,0.04320987654320988,10.370370370370372,0)" xlink:href="#ah"/><use transform="matrix(0.04320987654320988,0,0,0.04320987654320988,19.01234567901235,0)" xlink:href="#X"/><use transform="matrix(0.04320987654320988,0,0,0.04320987654320988,24.154320987654323,0)" xlink:href="#af"/><use transform="matrix(0.04320987654320988,0,0,0.04320987654320988,31.9320987654321,0)" xlink:href="#W"/><use transform="matrix(0.04320987654320988,0,0,0.04320987654320988,40.574074074074076,0)" xlink:href="#R"/><use transform="matrix(0.04320987654320988,0,0,0.04320987654320988,48.308641975308646,0)" xlink:href="#W"/><use transform="matrix(0.04320987654320988,0,0,0.04320987654320988,56.95061728395062,0)" xlink:href="#af"/><use transform="matrix(0.04320987654320988,0,0,0.04320987654320988,64.7283950617284,0)" xlink:href="#aa"/><use transform="matrix(0.04320987654320988,0,0,0.04320987654320988,69.0493827160494,0)" xlink:href="#S"/><use transform="matrix(0.04320987654320988,0,0,0.04320987654320988,79.41975308641976,0)" xlink:href="#W"/><use transform="matrix(0.04320987654320988,0,0,0.04320987654320988,88.06172839506173,0)" xlink:href="#aa"/></g><g id="p"><use transform="matrix(0.04320987654320988,0,0,0.04320987654320988,0,0)" xlink:href="#ap"/><use transform="matrix(0.04320987654320988,0,0,0.04320987654320988,10.370370370370372,0)" xlink:href="#ah"/><use transform="matrix(0.04320987654320988,0,0,0.04320987654320988,19.01234567901235,0)" xlink:href="#X"/><use transform="matrix(0.04320987654320988,0,0,0.04320987654320988,24.154320987654323,0)" xlink:href="#af"/><use transform="matrix(0.04320987654320988,0,0,0.04320987654320988,31.9320987654321,0)" xlink:href="#ae"/><use transform="matrix(0.04320987654320988,0,0,0.04320987654320988,35.345679012345684,0)" xlink:href="#V"/><use transform="matrix(0.04320987654320988,0,0,0.04320987654320988,43.98765432098766,0)" xlink:href="#aq"/></g><g id="q"><use transform="matrix(0.04320987654320988,0,0,0.04320987654320988,0,0)" xlink:href="#R"/><use transform="matrix(0.04320987654320988,0,0,0.04320987654320988,7.734567901234567,0)" xlink:href="#W"/><use transform="matrix(0.04320987654320988,0,0,0.04320987654320988,16.376543209876544,0)" xlink:href="#af"/><use transform="matrix(0.04320987654320988,0,0,0.04320987654320988,24.154320987654323,0)" xlink:href="#aa"/><use transform="matrix(0.04320987654320988,0,0,0.04320987654320988,28.47530864197531,0)" xlink:href="#S"/><use transform="matrix(0.04320987654320988,0,0,0.04320987654320988,38.845679012345684,0)" xlink:href="#W"/><use transform="matrix(0.04320987654320988,0,0,0.04320987654320988,47.48765432098766,0)" xlink:href="#aa"/></g><g id="r"><use transform="matrix(0.04320987654320988,0,0,0.04320987654320988,0,0)" xlink:href="#ap"/><use transform="matrix(0.04320987654320988,0,0,0.04320987654320988,10.370370370370372,0)" xlink:href="#ah"/><use transform="matrix(0.04320987654320988,0,0,0.04320987654320988,19.01234567901235,0)" xlink:href="#X"/><use transform="matrix(0.04320987654320988,0,0,0.04320987654320988,24.154320987654323,0)" xlink:href="#af"/><use transform="matrix(0.04320987654320988,0,0,0.04320987654320988,31.9320987654321,0)" xlink:href="#W"/><use transform="matrix(0.04320987654320988,0,0,0.04320987654320988,40.574074074074076,0)" xlink:href="#aj"/></g><g id="s"><use transform="matrix(0.04320987654320988,0,0,0.04320987654320988,0,0)" xlink:href="#Y"/><use transform="matrix(0.04320987654320988,0,0,0.04320987654320988,10.370370370370372,0)" xlink:href="#af"/><use transform="matrix(0.04320987654320988,0,0,0.04320987654320988,18.148148148148152,0)" xlink:href="#af"/><use transform="matrix(0.04320987654320988,0,0,0.04320987654320988,25.925925925925927,0)" xlink:href="#U"/><use transform="matrix(0.04320987654320988,0,0,0.04320987654320988,34.567901234567906,0)" xlink:href="#am"/><use transform="matrix(0.04320987654320988,0,0,0.04320987654320988,47.48765432098766,0)" xlink:href="#ar"/><use transform="matrix(0.04320987654320988,0,0,0.04320987654320988,56.12962962962963,0)" xlink:href="#aa"/><use transform="matrix(0.04320987654320988,0,0,0.04320987654320988,60.45061728395062,0)" xlink:href="#ae"/><use transform="matrix(0.04320987654320988,0,0,0.04320987654320988,63.8641975308642,0)" xlink:href="#ab"/><use transform="matrix(0.04320987654320988,0,0,0.04320987654320988,72.50617283950618,0)" xlink:href="#V"/></g><path d="M80-196l47-18 7 23-49 13 32 44-20 13-27-46-27 45-21-12 33-44-49-13 8-23 47 19-2-53h23" id="as"/><g id="t"><use transform="matrix(0.04320987654320988,0,0,0.04320987654320988,0,0)" xlink:href="#ak"/><use transform="matrix(0.04320987654320988,0,0,0.04320987654320988,9.462962962962964,0)" xlink:href="#ah"/><use transform="matrix(0.04320987654320988,0,0,0.04320987654320988,18.10493827160494,0)" xlink:href="#ae"/><use transform="matrix(0.04320987654320988,0,0,0.04320987654320988,21.51851851851852,0)" xlink:href="#ag"/><use transform="matrix(0.04320987654320988,0,0,0.04320987654320988,24.9320987654321,0)" xlink:href="#W"/><use transform="matrix(0.04320987654320988,0,0,0.04320987654320988,33.574074074074076,0)" xlink:href="#aj"/><use transform="matrix(0.04320987654320988,0,0,0.04320987654320988,42.21604938271605,0)" xlink:href="#as"/></g><g id="u"><use transform="matrix(0.04320987654320988,0,0,0.04320987654320988,0,0)" xlink:href="#T"/><use transform="matrix(0.04320987654320988,0,0,0.04320987654320988,11.19135802469136,0)" xlink:href="#U"/><use transform="matrix(0.04320987654320988,0,0,0.04320987654320988,19.833333333333336,0)" xlink:href="#V"/><use transform="matrix(0.04320987654320988,0,0,0.04320987654320988,28.47530864197531,0)" xlink:href="#R"/><use transform="matrix(0.04320987654320988,0,0,0.04320987654320988,36.20987654320988,0)" xlink:href="#W"/><use transform="matrix(0.04320987654320988,0,0,0.04320987654320988,44.851851851851855,0)" xlink:href="#af"/><use transform="matrix(0.04320987654320988,0,0,0.04320987654320988,52.62962962962963,0)" xlink:href="#aa"/><use transform="matrix(0.04320987654320988,0,0,0.04320987654320988,56.95061728395062,0)" xlink:href="#al"/><use transform="matrix(0.04320987654320988,0,0,0.04320987654320988,68.14197530864197,0)" xlink:href="#ah"/><use transform="matrix(0.04320987654320988,0,0,0.04320987654320988,76.78395061728395,0)" xlink:href="#af"/><use transform="matrix(0.04320987654320988,0,0,0.04320987654320988,84.56172839506172,0)" xlink:href="#W"/></g><path d="M143 4C61 4 22-44 18-125c-5-107 100-154 193-111 17 8 29 25 37 43l-32 9c-13-25-37-40-76-40-61 0-88 39-88 99 0 61 29 100 91 101 35 0 62-11 79-27v-45h-74v-28h105v86C228-13 192 4 143 4" id="at"/><g id="v"><use transform="matrix(0.04320987654320988,0,0,0.04320987654320988,0,0)" xlink:href="#at"/><use transform="matrix(0.04320987654320988,0,0,0.04320987654320988,12.098765432098766,0)" xlink:href="#W"/><use transform="matrix(0.04320987654320988,0,0,0.04320987654320988,20.74074074074074,0)" xlink:href="#aa"/><use transform="matrix(0.04320987654320988,0,0,0.04320987654320988,25.061728395061728,0)" xlink:href="#T"/><use transform="matrix(0.04320987654320988,0,0,0.04320987654320988,36.25308641975309,0)" xlink:href="#W"/><use transform="matrix(0.04320987654320988,0,0,0.04320987654320988,44.89506172839506,0)" xlink:href="#af"/><use transform="matrix(0.04320987654320988,0,0,0.04320987654320988,52.67283950617284,0)" xlink:href="#ab"/><use transform="matrix(0.04320987654320988,0,0,0.04320987654320988,61.314814814814824,0)" xlink:href="#U"/><use transform="matrix(0.04320987654320988,0,0,0.04320987654320988,69.9567901234568,0)" xlink:href="#X"/><use transform="matrix(0.04320987654320988,0,0,0.04320987654320988,75.09876543209877,0)" xlink:href="#Z"/><use transform="matrix(0.04320987654320988,0,0,0.04320987654320988,82.87654320987656,0)" xlink:href="#W"/></g><path d="M33 0v-248h34V0H33" id="au"/><path d="M108 0H70L1-190h34L89-25l56-165h34" id="av"/><g id="w"><use transform="matrix(0.04320987654320988,0,0,0.04320987654320988,0,0)" xlink:href="#au"/><use transform="matrix(0.04320987654320988,0,0,0.04320987654320988,4.320987654320988,0)" xlink:href="#V"/><use transform="matrix(0.04320987654320988,0,0,0.04320987654320988,12.962962962962964,0)" xlink:href="#av"/><use transform="matrix(0.04320987654320988,0,0,0.04320987654320988,20.740740740740744,0)" xlink:href="#ah"/><use transform="matrix(0.04320987654320988,0,0,0.04320987654320988,29.382716049382726,0)" xlink:href="#ag"/><use transform="matrix(0.04320987654320988,0,0,0.04320987654320988,32.796296296296305,0)" xlink:href="#ae"/><use transform="matrix(0.04320987654320988,0,0,0.04320987654320988,36.20987654320989,0)" xlink:href="#aj"/></g><g id="x"><use transform="matrix(0.04320987654320988,0,0,0.04320987654320988,0,0)" xlink:href="#R"/><use transform="matrix(0.04320987654320988,0,0,0.04320987654320988,7.734567901234567,0)" xlink:href="#W"/><use transform="matrix(0.04320987654320988,0,0,0.04320987654320988,16.376543209876544,0)" xlink:href="#af"/><use transform="matrix(0.04320987654320988,0,0,0.04320987654320988,24.154320987654323,0)" xlink:href="#aa"/><use transform="matrix(0.04320987654320988,0,0,0.04320987654320988,28.47530864197531,0)" xlink:href="#al"/><use transform="matrix(0.04320987654320988,0,0,0.04320987654320988,39.66666666666667,0)" xlink:href="#ah"/><use transform="matrix(0.04320987654320988,0,0,0.04320987654320988,48.308641975308646,0)" xlink:href="#af"/><use transform="matrix(0.04320987654320988,0,0,0.04320987654320988,56.086419753086425,0)" xlink:href="#W"/><use transform="matrix(0.04320987654320988,0,0,0.04320987654320988,64.7283950617284,0)" xlink:href="#as"/></g><g id="y"><use transform="matrix(0.04320987654320988,0,0,0.04320987654320988,0,0)" xlink:href="#al"/><use transform="matrix(0.04320987654320988,0,0,0.04320987654320988,11.19135802469136,0)" xlink:href="#ah"/><use transform="matrix(0.04320987654320988,0,0,0.04320987654320988,19.833333333333336,0)" xlink:href="#Z"/><use transform="matrix(0.04320987654320988,0,0,0.04320987654320988,27.611111111111114,0)" xlink:href="#an"/><use transform="matrix(0.04320987654320988,0,0,0.04320987654320988,36.25308641975309,0)" xlink:href="#W"/><use transform="matrix(0.04320987654320988,0,0,0.04320987654320988,44.89506172839506,0)" xlink:href="#aj"/></g><g id="z"><use transform="matrix(0.04320987654320988,0,0,0.04320987654320988,0,0)" xlink:href="#T"/><use transform="matrix(0.04320987654320988,0,0,0.04320987654320988,11.19135802469136,0)" xlink:href="#W"/><use transform="matrix(0.04320987654320988,0,0,0.04320987654320988,19.833333333333336,0)" xlink:href="#af"/><use transform="matrix(0.04320987654320988,0,0,0.04320987654320988,27.611111111111114,0)" xlink:href="#ab"/><use transform="matrix(0.04320987654320988,0,0,0.04320987654320988,36.25308641975309,0)" xlink:href="#U"/><use transform="matrix(0.04320987654320988,0,0,0.04320987654320988,44.89506172839506,0)" xlink:href="#X"/><use transform="matrix(0.04320987654320988,0,0,0.04320987654320988,50.037037037037045,0)" xlink:href="#Z"/><use transform="matrix(0.04320987654320988,0,0,0.04320987654320988,57.814814814814824,0)" xlink:href="#W"/></g><path d="M30 0v-248h187v28H63v79h144v27H63v87h162V0H30" id="aw"/><g id="A"><use transform="matrix(0.04320987654320988,0,0,0.04320987654320988,0,0)" xlink:href="#T"/><use transform="matrix(0.04320987654320988,0,0,0.04320987654320988,11.19135802469136,0)" xlink:href="#W"/><use transform="matrix(0.04320987654320988,0,0,0.04320987654320988,19.833333333333336,0)" xlink:href="#af"/><use transform="matrix(0.04320987654320988,0,0,0.04320987654320988,27.611111111111114,0)" xlink:href="#ab"/><use transform="matrix(0.04320987654320988,0,0,0.04320987654320988,36.25308641975309,0)" xlink:href="#U"/><use transform="matrix(0.04320987654320988,0,0,0.04320987654320988,44.89506172839506,0)" xlink:href="#X"/><use transform="matrix(0.04320987654320988,0,0,0.04320987654320988,50.037037037037045,0)" xlink:href="#Z"/><use transform="matrix(0.04320987654320988,0,0,0.04320987654320988,57.814814814814824,0)" xlink:href="#W"/><use transform="matrix(0.04320987654320988,0,0,0.04320987654320988,66.4567901234568,0)" xlink:href="#at"/><use transform="matrix(0.04320987654320988,0,0,0.04320987654320988,78.55555555555557,0)" xlink:href="#W"/><use transform="matrix(0.04320987654320988,0,0,0.04320987654320988,87.19753086419755,0)" xlink:href="#aa"/><use transform="matrix(0.04320987654320988,0,0,0.04320987654320988,91.51851851851853,0)" xlink:href="#aw"/><use transform="matrix(0.04320987654320988,0,0,0.04320987654320988,101.8888888888889,0)" xlink:href="#X"/><use transform="matrix(0.04320987654320988,0,0,0.04320987654320988,107.03086419753087,0)" xlink:href="#X"/><use transform="matrix(0.04320987654320988,0,0,0.04320987654320988,112.17283950617285,0)" xlink:href="#ab"/><use transform="matrix(0.04320987654320988,0,0,0.04320987654320988,120.81481481481482,0)" xlink:href="#X"/></g><g id="B"><use transform="matrix(0.04320987654320988,0,0,0.04320987654320988,0,0)" xlink:href="#T"/><use transform="matrix(0.04320987654320988,0,0,0.04320987654320988,11.19135802469136,0)" xlink:href="#W"/><use transform="matrix(0.04320987654320988,0,0,0.04320987654320988,19.833333333333336,0)" xlink:href="#ah"/><use transform="matrix(0.04320987654320988,0,0,0.04320987654320988,28.47530864197531,0)" xlink:href="#aj"/><use transform="matrix(0.04320987654320988,0,0,0.04320987654320988,37.117283950617285,0)" xlink:href="#ak"/><use transform="matrix(0.04320987654320988,0,0,0.04320987654320988,46.58024691358024,0)" xlink:href="#ae"/><use transform="matrix(0.04320987654320988,0,0,0.04320987654320988,49.99382716049383,0)" xlink:href="#ag"/><use transform="matrix(0.04320987654320988,0,0,0.04320987654320988,53.40740740740741,0)" xlink:href="#W"/></g><g id="C"><use transform="matrix(0.04320987654320988,0,0,0.04320987654320988,0,0)" xlink:href="#ak"/><use transform="matrix(0.04320987654320988,0,0,0.04320987654320988,9.462962962962964,0)" xlink:href="#ae"/><use transform="matrix(0.04320987654320988,0,0,0.04320987654320988,12.876543209876544,0)" xlink:href="#ag"/><use transform="matrix(0.04320987654320988,0,0,0.04320987654320988,16.290123456790127,0)" xlink:href="#W"/><use transform="matrix(0.04320987654320988,0,0,0.04320987654320988,24.9320987654321,0)" xlink:href="#al"/><use transform="matrix(0.04320987654320988,0,0,0.04320987654320988,36.12345679012346,0)" xlink:href="#ab"/><use transform="matrix(0.04320987654320988,0,0,0.04320987654320988,44.76543209876544,0)" xlink:href="#V"/><use transform="matrix(0.04320987654320988,0,0,0.04320987654320988,53.40740740740741,0)" xlink:href="#aa"/><use transform="matrix(0.04320987654320988,0,0,0.04320987654320988,57.7283950617284,0)" xlink:href="#W"/><use transform="matrix(0.04320987654320988,0,0,0.04320987654320988,66.37037037037038,0)" xlink:href="#V"/><use transform="matrix(0.04320987654320988,0,0,0.04320987654320988,75.01234567901236,0)" xlink:href="#aa"/></g><g id="D"><use transform="matrix(0.04320987654320988,0,0,0.04320987654320988,0,0)" xlink:href="#ak"/><use transform="matrix(0.04320987654320988,0,0,0.04320987654320988,9.462962962962964,0)" xlink:href="#ae"/><use transform="matrix(0.04320987654320988,0,0,0.04320987654320988,12.876543209876544,0)" xlink:href="#ag"/><use transform="matrix(0.04320987654320988,0,0,0.04320987654320988,16.290123456790127,0)" xlink:href="#W"/><use transform="matrix(0.04320987654320988,0,0,0.04320987654320988,24.9320987654321,0)" xlink:href="#T"/><use transform="matrix(0.04320987654320988,0,0,0.04320987654320988,36.12345679012346,0)" xlink:href="#W"/><use transform="matrix(0.04320987654320988,0,0,0.04320987654320988,44.76543209876544,0)" xlink:href="#ah"/><use transform="matrix(0.04320987654320988,0,0,0.04320987654320988,53.40740740740741,0)" xlink:href="#aj"/><use transform="matrix(0.04320987654320988,0,0,0.04320987654320988,62.04938271604939,0)" xlink:href="#aw"/><use transform="matrix(0.04320987654320988,0,0,0.04320987654320988,72.41975308641976,0)" xlink:href="#X"/><use transform="matrix(0.04320987654320988,0,0,0.04320987654320988,77.56172839506173,0)" xlink:href="#X"/><use transform="matrix(0.04320987654320988,0,0,0.04320987654320988,82.70370370370371,0)" xlink:href="#ab"/><use transform="matrix(0.04320987654320988,0,0,0.04320987654320988,91.34567901234568,0)" xlink:href="#X"/></g><g id="E"><use transform="matrix(0.04320987654320988,0,0,0.04320987654320988,0,0)" xlink:href="#T"/><use transform="matrix(0.04320987654320988,0,0,0.04320987654320988,11.19135802469136,0)" xlink:href="#U"/><use transform="matrix(0.04320987654320988,0,0,0.04320987654320988,19.833333333333336,0)" xlink:href="#V"/><use transform="matrix(0.04320987654320988,0,0,0.04320987654320988,28.47530864197531,0)" xlink:href="#R"/><use transform="matrix(0.04320987654320988,0,0,0.04320987654320988,36.20987654320988,0)" xlink:href="#W"/><use transform="matrix(0.04320987654320988,0,0,0.04320987654320988,44.851851851851855,0)" xlink:href="#af"/><use transform="matrix(0.04320987654320988,0,0,0.04320987654320988,52.62962962962963,0)" xlink:href="#aa"/><use transform="matrix(0.04320987654320988,0,0,0.04320987654320988,56.95061728395062,0)" xlink:href="#al"/><use transform="matrix(0.04320987654320988,0,0,0.04320987654320988,68.14197530864197,0)" xlink:href="#ah"/><use transform="matrix(0.04320987654320988,0,0,0.04320987654320988,76.78395061728395,0)" xlink:href="#af"/><use transform="matrix(0.04320987654320988,0,0,0.04320987654320988,84.56172839506172,0)" xlink:href="#W"/><use transform="matrix(0.04320987654320988,0,0,0.04320987654320988,93.2037037037037,0)" xlink:href="#au"/><use transform="matrix(0.04320987654320988,0,0,0.04320987654320988,97.52469135802468,0)" xlink:href="#V"/><use transform="matrix(0.04320987654320988,0,0,0.04320987654320988,106.16666666666666,0)" xlink:href="#aa"/><use transform="matrix(0.04320987654320988,0,0,0.04320987654320988,110.48765432098764,0)" xlink:href="#W"/><use transform="matrix(0.04320987654320988,0,0,0.04320987654320988,119.12962962962962,0)" xlink:href="#X"/><use transform="matrix(0.04320987654320988,0,0,0.04320987654320988,124.2716049382716,0)" xlink:href="#V"/><use transform="matrix(0.04320987654320988,0,0,0.04320987654320988,132.91358024691357,0)" xlink:href="#ah"/><use transform="matrix(0.04320987654320988,0,0,0.04320987654320988,141.55555555555554,0)" xlink:href="#ag"/></g><g id="F"><use transform="matrix(0.04320987654320988,0,0,0.04320987654320988,0,0)" xlink:href="#T"/><use transform="matrix(0.04320987654320988,0,0,0.04320987654320988,11.19135802469136,0)" xlink:href="#U"/><use transform="matrix(0.04320987654320988,0,0,0.04320987654320988,19.833333333333336,0)" xlink:href="#V"/><use transform="matrix(0.04320987654320988,0,0,0.04320987654320988,28.47530864197531,0)" xlink:href="#V"/><use transform="matrix(0.04320987654320988,0,0,0.04320987654320988,37.117283950617285,0)" xlink:href="#ae"/><use transform="matrix(0.04320987654320988,0,0,0.04320987654320988,40.53086419753087,0)" xlink:href="#V"/><use transform="matrix(0.04320987654320988,0,0,0.04320987654320988,49.17283950617284,0)" xlink:href="#aq"/></g><g id="G"><use transform="matrix(0.04320987654320988,0,0,0.04320987654320988,0,0)" xlink:href="#R"/><use transform="matrix(0.04320987654320988,0,0,0.04320987654320988,7.734567901234567,0)" xlink:href="#W"/><use transform="matrix(0.04320987654320988,0,0,0.04320987654320988,16.376543209876544,0)" xlink:href="#af"/><use transform="matrix(0.04320987654320988,0,0,0.04320987654320988,24.154320987654323,0)" xlink:href="#aa"/><use transform="matrix(0.04320987654320988,0,0,0.04320987654320988,28.47530864197531,0)" xlink:href="#al"/><use transform="matrix(0.04320987654320988,0,0,0.04320987654320988,39.66666666666667,0)" xlink:href="#ah"/><use transform="matrix(0.04320987654320988,0,0,0.04320987654320988,48.308641975308646,0)" xlink:href="#af"/><use transform="matrix(0.04320987654320988,0,0,0.04320987654320988,56.086419753086425,0)" xlink:href="#W"/></g><g id="H"><use transform="matrix(0.04320987654320988,0,0,0.04320987654320988,0,0)" xlink:href="#T"/><use transform="matrix(0.04320987654320988,0,0,0.04320987654320988,11.19135802469136,0)" xlink:href="#ah"/><use transform="matrix(0.04320987654320988,0,0,0.04320987654320988,19.833333333333336,0)" xlink:href="#V"/></g><g id="I"><use transform="matrix(0.04320987654320988,0,0,0.04320987654320988,0,0)" xlink:href="#R"/><use transform="matrix(0.04320987654320988,0,0,0.04320987654320988,7.734567901234567,0)" xlink:href="#W"/><use transform="matrix(0.04320987654320988,0,0,0.04320987654320988,16.376543209876544,0)" xlink:href="#af"/><use transform="matrix(0.04320987654320988,0,0,0.04320987654320988,24.154320987654323,0)" xlink:href="#aa"/><use transform="matrix(0.04320987654320988,0,0,0.04320987654320988,28.47530864197531,0)" xlink:href="#S"/><use transform="matrix(0.04320987654320988,0,0,0.04320987654320988,38.845679012345684,0)" xlink:href="#W"/><use transform="matrix(0.04320987654320988,0,0,0.04320987654320988,47.48765432098766,0)" xlink:href="#aa"/></g><g id="J"><use transform="matrix(0.04320987654320988,0,0,0.04320987654320988,0,0)" xlink:href="#T"/><use transform="matrix(0.04320987654320988,0,0,0.04320987654320988,11.19135802469136,0)" xlink:href="#W"/><use transform="matrix(0.04320987654320988,0,0,0.04320987654320988,19.833333333333336,0)" xlink:href="#af"/><use transform="matrix(0.04320987654320988,0,0,0.04320987654320988,27.611111111111114,0)" xlink:href="#U"/><use transform="matrix(0.04320987654320988,0,0,0.04320987654320988,36.25308641975309,0)" xlink:href="#ag"/><use transform="matrix(0.04320987654320988,0,0,0.04320987654320988,39.66666666666667,0)" xlink:href="#aa"/><use transform="matrix(0.04320987654320988,0,0,0.04320987654320988,43.98765432098766,0)" xlink:href="#af"/></g><g id="K"><use transform="matrix(0.04320987654320988,0,0,0.04320987654320988,0,0)" xlink:href="#ak"/><use transform="matrix(0.04320987654320988,0,0,0.04320987654320988,9.462962962962964,0)" xlink:href="#ae"/><use transform="matrix(0.04320987654320988,0,0,0.04320987654320988,12.876543209876544,0)" xlink:href="#V"/><use transform="matrix(0.04320987654320988,0,0,0.04320987654320988,21.51851851851852,0)" xlink:href="#ah"/><use transform="matrix(0.04320987654320988,0,0,0.04320987654320988,30.160493827160494,0)" xlink:href="#ag"/><use transform="matrix(0.04320987654320988,0,0,0.04320987654320988,33.574074074074076,0)" xlink:href="#ae"/><use transform="matrix(0.04320987654320988,0,0,0.04320987654320988,36.98765432098766,0)" xlink:href="#ai"/><use transform="matrix(0.04320987654320988,0,0,0.04320987654320988,44.76543209876544,0)" xlink:href="#W"/></g><g id="L"><use transform="matrix(0.04320987654320988,0,0,0.04320987654320988,0,0)" xlink:href="#S"/><use transform="matrix(0.04320987654320988,0,0,0.04320987654320988,10.370370370370372,0)" xlink:href="#W"/><use transform="matrix(0.04320987654320988,0,0,0.04320987654320988,19.01234567901235,0)" xlink:href="#X"/><use transform="matrix(0.04320987654320988,0,0,0.04320987654320988,24.154320987654323,0)" xlink:href="#ae"/><use transform="matrix(0.04320987654320988,0,0,0.04320987654320988,27.567901234567906,0)" xlink:href="#ah"/><use transform="matrix(0.04320987654320988,0,0,0.04320987654320988,36.20987654320988,0)" xlink:href="#ag"/><use transform="matrix(0.04320987654320988,0,0,0.04320987654320988,39.62345679012346,0)" xlink:href="#ae"/><use transform="matrix(0.04320987654320988,0,0,0.04320987654320988,43.037037037037045,0)" xlink:href="#ai"/><use transform="matrix(0.04320987654320988,0,0,0.04320987654320988,50.81481481481482,0)" xlink:href="#ah"/><use transform="matrix(0.04320987654320988,0,0,0.04320987654320988,59.4567901234568,0)" xlink:href="#aa"/><use transform="matrix(0.04320987654320988,0,0,0.04320987654320988,63.777777777777786,0)" xlink:href="#ae"/><use transform="matrix(0.04320987654320988,0,0,0.04320987654320988,67.19135802469137,0)" xlink:href="#ab"/><use transform="matrix(0.04320987654320988,0,0,0.04320987654320988,75.83333333333334,0)" xlink:href="#V"/></g><g id="M"><use transform="matrix(0.04320987654320988,0,0,0.04320987654320988,0,0)" xlink:href="#S"/><use transform="matrix(0.04320987654320988,0,0,0.04320987654320988,10.370370370370372,0)" xlink:href="#W"/><use transform="matrix(0.04320987654320988,0,0,0.04320987654320988,19.01234567901235,0)" xlink:href="#X"/><use transform="matrix(0.04320987654320988,0,0,0.04320987654320988,24.154320987654323,0)" xlink:href="#ae"/><use transform="matrix(0.04320987654320988,0,0,0.04320987654320988,27.567901234567906,0)" xlink:href="#ah"/><use transform="matrix(0.04320987654320988,0,0,0.04320987654320988,36.20987654320988,0)" xlink:href="#ag"/><use transform="matrix(0.04320987654320988,0,0,0.04320987654320988,39.62345679012346,0)" xlink:href="#ae"/><use transform="matrix(0.04320987654320988,0,0,0.04320987654320988,43.037037037037045,0)" xlink:href="#ai"/><use transform="matrix(0.04320987654320988,0,0,0.04320987654320988,50.81481481481482,0)" xlink:href="#W"/><use transform="matrix(0.04320987654320988,0,0,0.04320987654320988,59.4567901234568,0)" xlink:href="#aj"/></g><g id="N"><use transform="matrix(0.04320987654320988,0,0,0.04320987654320988,0,0)" xlink:href="#R"/><use transform="matrix(0.04320987654320988,0,0,0.04320987654320988,7.734567901234567,0)" xlink:href="#W"/><use transform="matrix(0.04320987654320988,0,0,0.04320987654320988,16.376543209876544,0)" xlink:href="#af"/><use transform="matrix(0.04320987654320988,0,0,0.04320987654320988,24.154320987654323,0)" xlink:href="#aa"/><use transform="matrix(0.04320987654320988,0,0,0.04320987654320988,28.47530864197531,0)" xlink:href="#S"/><use transform="matrix(0.04320987654320988,0,0,0.04320987654320988,38.845679012345684,0)" xlink:href="#W"/><use transform="matrix(0.04320987654320988,0,0,0.04320987654320988,47.48765432098766,0)" xlink:href="#aa"/><use transform="matrix(0.04320987654320988,0,0,0.04320987654320988,51.808641975308646,0)" xlink:href="#T"/><use transform="matrix(0.04320987654320988,0,0,0.04320987654320988,63.00000000000001,0)" xlink:href="#W"/><use transform="matrix(0.04320987654320988,0,0,0.04320987654320988,71.64197530864199,0)" xlink:href="#af"/><use transform="matrix(0.04320987654320988,0,0,0.04320987654320988,79.41975308641977,0)" xlink:href="#U"/><use transform="matrix(0.04320987654320988,0,0,0.04320987654320988,88.06172839506175,0)" xlink:href="#ag"/><use transform="matrix(0.04320987654320988,0,0,0.04320987654320988,91.47530864197533,0)" xlink:href="#aa"/><use transform="matrix(0.04320987654320988,0,0,0.04320987654320988,95.79629629629632,0)" xlink:href="#af"/></g><g id="O"><use transform="matrix(0.04320987654320988,0,0,0.04320987654320988,0,0)" xlink:href="#ak"/><use transform="matrix(0.04320987654320988,0,0,0.04320987654320988,9.462962962962964,0)" xlink:href="#ae"/><use transform="matrix(0.04320987654320988,0,0,0.04320987654320988,12.876543209876544,0)" xlink:href="#V"/><use transform="matrix(0.04320987654320988,0,0,0.04320987654320988,21.51851851851852,0)" xlink:href="#ae"/><use transform="matrix(0.04320987654320988,0,0,0.04320987654320988,24.9320987654321,0)" xlink:href="#af"/><use transform="matrix(0.04320987654320988,0,0,0.04320987654320988,32.70987654320988,0)" xlink:href="#an"/><use transform="matrix(0.04320987654320988,0,0,0.04320987654320988,41.351851851851855,0)" xlink:href="#W"/><use transform="matrix(0.04320987654320988,0,0,0.04320987654320988,49.99382716049383,0)" xlink:href="#aj"/></g></defs></g></svg>