<svg xmlns="http://www.w3.org/2000/svg" xmlns:xlink="http://www.w3.org/1999/xlink" xmlns:lucid="lucid" width="1588" height="800"><g transform="translate(-12 -60)" lucid:page-tab-id="0_0"><path d="M32 311c0-7.73 6.27-14 14-14h1520c7.73 0 14 6.27 14 14v515c0 7.73-6.27 14-14 14H46c-7.73 0-14-6.27-14-14zM867.2 80c7.07 0 12.8 5.73 12.8 12.8v102.4c0 7.07-5.73 12.8-12.8 12.8H732.8c-7.07 0-12.8-5.73-12.8-12.8V92.8c0-7.07 5.73-12.8 12.8-12.8z" stroke="#000" stroke-width="2" fill="#fff"/><path d="M720 128h160" stroke="#000" stroke-width="2" fill="none"/><use xlink:href="#a" transform="matrix(1,0,0,1,736,80) translate(15.149999999999999 27.6)"/><use xlink:href="#b" transform="matrix(1,0,0,1,736,138) translate(10.074999999999996 33.6)"/><path d="M692 260c-6.63 0-12 5.37-12 12v36c0 6.63 5.37 12 12 12h216c6.63 0 12-5.37 12-12v-36c0-6.63-5.37-12-12-12z" stroke="#000" stroke-width="2" fill="#fff"/><path d="M698 280v20m-10 0v-10h20v10" stroke="#000" stroke-width="2" fill="none"/><use xlink:href="#c" transform="matrix(1,0,0,1,718,268) translate(13.099999999999994 25.6)"/><path d="M924 372.5c3.3 0 6 2.7 6 6v48c0 3.3-2.7 6-6 6H676c-3.3 0-6-2.7-6-6v-48c0-3.3 2.7-6 6-6z" stroke="#000" stroke-width="2" fill="#fff"/><use xlink:href="#d" transform="matrix(1,0,0,1,690,372.5) translate(35.099999999999994 33.6)"/><path d="M699.75 388.25c0 2.62-2.13 4.75-4.75 4.75s-4.75-2.13-4.75-4.75 2.13-4.75 4.75-4.75 4.75 2.13 4.75 4.75z" stroke="#000" stroke-width="2" fill="#fff"/><path d="M685 383.5h20v38h-20z" fill="none"/><path d="M695 393v13.3l10 15.2m-10-15.2l-10 15.2m0-23.75h20M800 371.5v-32.26" stroke="#000" stroke-width="2" fill="none"/><path d="M801 372.5h-2v-1h2zM804.64 338.5h-9.28l4.64-14.26z"/><path d="M806 339.5h-12l6-18.5zm-9.26-2h6.52L800 327.47z"/><path d="M800 259v-26.04" fill="none"/><path d="M800 259v-8.68m0-8.68v-8.68" stroke="#000" stroke-width="2" fill="none"/><path d="M801 260h-2v-1h2z"/><path d="M812.73 232.48h-25.46L800 210.96z" fill="#fff"/><path d="M814.48 233.48h-28.96L800 209zm-25.45-2h21.94L800 212.93z"/><path d="M1448 427c28.72 0 52 14.33 52 32s-23.28 32-52 32h-156c-28.72 0-52-14.33-52-32s23.28-32 52-32z" stroke="#000" stroke-width="2" fill="#fff"/><use xlink:href="#e" transform="matrix(1,0,0,1,1245,432) translate(10.275000000000034 30.6)"/><path d="M1380 481c0 5.52-4.48 10-10 10s-10-4.48-10-10 4.48-10 10-10 10 4.48 10 10zm-17.07-7.07l14.14 14.14m-14.14 0l14.14-14.14M1514 546c3.3 0 6 2.7 6 6v48c0 3.3-2.7 6-6 6h-308c-3.3 0-6-2.7-6-6v-48c0-3.3 2.7-6 6-6z" stroke="#000" stroke-width="2" fill="#fff"/><use xlink:href="#f" transform="matrix(1,0,0,1,1220,546) translate(119.025 33.6)"/><path d="M1238.08 561.75c0 2.62-2.12 4.75-4.75 4.75-2.62 0-4.75-2.13-4.75-4.75s2.13-4.75 4.75-4.75c2.63 0 4.75 2.13 4.75 4.75z" stroke="#000" stroke-width="2" fill="#fff"/><path d="M1220 557h26.67v38H1220z" fill="none"/><path d="M1233.33 566.5v13.3l13.34 15.2m-13.34-15.2L1220 595m0-23.75h26.67" stroke="#000" stroke-width="2" fill="none"/><path d="M1524 535c3.3 0 6 2.7 6 6v48c0 3.3-2.7 6-6 6h-308c-3.3 0-6-2.7-6-6v-48c0-3.3 2.7-6 6-6z" stroke="#000" stroke-width="2" fill="#fff"/><use xlink:href="#g" transform="matrix(1,0,0,1,1230,535) translate(32.592592592592595 33.55555555555556)"/><path d="M1248.08 550.75c0 2.62-2.12 4.75-4.75 4.75-2.62 0-4.75-2.13-4.75-4.75s2.13-4.75 4.75-4.75c2.63 0 4.75 2.13 4.75 4.75z" stroke="#000" stroke-width="2" fill="#fff"/><path d="M1230 546h26.67v38H1230z" fill="none"/><path d="M1243.33 555.5v13.3l13.34 15.2m-13.34-15.2L1230 584m0-23.75h26.67M1370 534v-23.76" stroke="#000" stroke-width="2" fill="none"/><path d="M1371 535h-2v-1h2zM1374.64 509.5h-9.28l4.64-14.26z"/><path d="M1376 510.5h-12l6-18.5zm-9.26-2h6.52l-3.26-10.03z"/><path d="M1239 459l-23.74-.48-19.63-1.22-16.86-1.77-15-2.2-13.87-2.65-13.5-3.17-14.24-3.97-18.35-6-55.96-19.56-14.23-3.98-13.5-3.18-13.88-2.64-15-2.2-16.85-1.78-19.63-1.22-5.5-.1" stroke="#000" stroke-width="2" fill="none"/><path d="M1240.05 458.02l-.05.98v.65l.04.37-1.06-.02.04-2zM948.4 407.5l-14.16-4.93 14.35-4.35z"/><path d="M949.38 408.88L931 402.5l18.62-5.64zm-11.9-6.25l9.95 3.46.13-6.52z"/><path d="M308 427.33c28.72 0 52 14.33 52 32 0 17.68-23.28 32-52 32H152c-28.72 0-52-14.32-52-32 0-17.67 23.28-32 52-32z" stroke="#000" stroke-width="2" fill="#fff"/><use xlink:href="#h" transform="matrix(1,0,0,1,105,432.3333333333333) translate(62.14999999999999 30.6)"/><path d="M240 481.33c0 5.53-4.48 10-10 10s-10-4.47-10-10c0-5.52 4.48-10 10-10s10 4.48 10 10zm-17.07-7.07l14.14 14.15m-14.14 0l14.14-14.14M374 545.5c3.3 0 6 2.7 6 6v48c0 3.3-2.7 6-6 6H66c-3.3 0-6-2.7-6-6v-48c0-3.3 2.7-6 6-6z" stroke="#000" stroke-width="2" fill="#fff"/><use xlink:href="#f" transform="matrix(1,0,0,1,80,545.5) translate(119.025 33.6)"/><path d="M98.08 561.25c0 2.62-2.12 4.75-4.75 4.75-2.62 0-4.75-2.13-4.75-4.75s2.13-4.75 4.75-4.75c2.63 0 4.75 2.13 4.75 4.75z" stroke="#000" stroke-width="2" fill="#fff"/><path d="M80 556.5h26.67v38H80z" fill="none"/><path d="M93.33 566v13.3l13.34 15.2m-13.34-15.2L80 594.5m0-23.75h26.67" stroke="#000" stroke-width="2" fill="none"/><path d="M384 534.5c3.3 0 6 2.7 6 6v48c0 3.3-2.7 6-6 6H76c-3.3 0-6-2.7-6-6v-48c0-3.3 2.7-6 6-6z" stroke="#000" stroke-width="2" fill="#fff"/><use xlink:href="#i" transform="matrix(1,0,0,1,90,534.5) translate(83.82716049382715 33.55555555555556)"/><path d="M108.08 550.25c0 2.62-2.12 4.75-4.75 4.75-2.62 0-4.75-2.13-4.75-4.75s2.13-4.75 4.75-4.75c2.63 0 4.75 2.13 4.75 4.75z" stroke="#000" stroke-width="2" fill="#fff"/><path d="M90 545.5h26.67v38H90z" fill="none"/><path d="M103.33 555v13.3l13.34 15.2m-13.34-15.2L90 583.5m0-23.75h26.67M230 533.5v-22.93" stroke="#000" stroke-width="2" fill="none"/><path d="M231 534.5h-2v-1h2zM234.64 509.84h-9.28l4.64-14.27z"/><path d="M236 510.84h-12l6-18.5zm-9.26-2h6.52L230 498.8z"/><path d="M1544 658c3.3 0 6 2.7 6 6v48c0 3.3-2.7 6-6 6h-348c-3.3 0-6-2.7-6-6v-48c0-3.3 2.7-6 6-6z" stroke="#000" stroke-width="2" fill="#fff"/><use xlink:href="#j" transform="matrix(1,0,0,1,1210,658) translate(38.17500000000001 33.6)"/><path d="M1228.08 673.75c0 2.62-2.12 4.75-4.75 4.75-2.62 0-4.75-2.13-4.75-4.75s2.13-4.75 4.75-4.75c2.63 0 4.75 2.13 4.75 4.75z" stroke="#000" stroke-width="2" fill="#fff"/><path d="M1210 669h26.67v38H1210z" fill="none"/><path d="M1223.33 678.5v13.3l13.34 15.2m-13.34-15.2L1210 707m0-23.75h26.67M1370 657l-70.33-14.13-71.13-17.38-62.97-18.2-51.96-17.38-41.65-15.9-33.17-14.3L1012.3 547 991 535.6l-17.28-10.2-14.18-9.16-11.73-8.3-9.78-7.58-8.24-6.94-6.97-6.4-5.94-5.93-5.1-5.52-4.4-5.18-3.8-4.88-3.28-4.62-2.86-4.4-2.5-4.18-1.1-2.07" stroke="#000" stroke-width="2" fill="none"/><path d="M1373.13 656.6l-.28 1.4h-2.95l-.1-.02.4-1.96zM897.8 447.78l-8.53 3.64-1.33-14.94z"/><path d="M899.46 448.16l-11.06 4.72-1.73-19.38zm-9.3 1.8l5.98-2.56-6.93-7.95z"/><path d="M1068 596.67c28.72 0 52 14.32 52 32 0 17.67-23.28 32-52 32H912c-28.72 0-52-14.33-52-32 0-17.68 23.28-32 52-32z" stroke="#000" stroke-width="2" fill="#fff"/><use xlink:href="#k" transform="matrix(1,0,0,1,865,601.6666666666666) translate(31.150000000000006 30.6)"/><path d="M1000 650.67c0 5.52-4.48 10-10 10s-10-4.48-10-10c0-5.53 4.48-10 10-10s10 4.47 10 10zm-17.07-7.08l14.14 14.14m-14.14 0l14.14-14.15M1134 747.67c3.3 0 6 2.68 6 6v48c0 3.3-2.7 6-6 6H826c-3.3 0-6-2.7-6-6v-48c0-3.32 2.7-6 6-6z" stroke="#000" stroke-width="2" fill="#fff"/><use xlink:href="#f" transform="matrix(1,0,0,1,840,747.6666666666666) translate(119.025 33.6)"/><path d="M858.08 763.42c0 2.62-2.12 4.75-4.75 4.75-2.62 0-4.75-2.13-4.75-4.75 0-2.63 2.13-4.75 4.75-4.75 2.63 0 4.75 2.12 4.75 4.75z" stroke="#000" stroke-width="2" fill="#fff"/><path d="M840 758.67h26.67v38H840z" fill="none"/><path d="M853.33 768.17v13.3l13.34 15.2m-13.34-15.2L840 796.67m0-23.75h26.67" stroke="#000" stroke-width="2" fill="none"/><path d="M1144 738.67c3.3 0 6 2.68 6 6v48c0 3.3-2.7 6-6 6H836c-3.3 0-6-2.7-6-6v-48c0-3.32 2.7-6 6-6z" stroke="#000" stroke-width="2" fill="#fff"/><use xlink:href="#l" transform="matrix(1,0,0,1,850,738.6666666666666) translate(53.20987654320989 33.55555555555556)"/><path d="M868.08 752.42c0 2.62-2.12 4.75-4.75 4.75-2.62 0-4.75-2.13-4.75-4.75 0-2.63 2.13-4.75 4.75-4.75 2.63 0 4.75 2.12 4.75 4.75z" stroke="#000" stroke-width="2" fill="#fff"/><path d="M850 747.67h26.67v38H850z" fill="none"/><path d="M863.33 757.17v13.3l13.34 15.2m-13.34-15.2L850 785.67m0-23.75h26.67M990 595.66l-.04-2.13-.13-2.07-.22-2.02-.28-1.97-.37-1.93-.44-1.9-.52-1.9-.6-1.87-.7-1.86-.8-1.86-.87-1.88-1-1.9-1.1-1.93-1.25-1.96-1.4-2-1.56-2.08-1.78-2.15-2-2.22-2.3-2.33-2.62-2.47-3.04-2.62-3.58-2.82-4.25-3.1-5.2-3.43-6.5-3.94-8.65-4.73-12.82-6.34-74.74-33.63-8.64-4.74-6.52-3.94-5.2-3.44-4.24-3.1-3.58-2.82-3.04-2.63-2.63-2.46-2.28-2.33-2.02-2.23-1.77-2.13-1.56-2.06-1.4-2-1.24-1.97-1.1-1.92-1-1.9-.9-1.87-.72-1.72" stroke="#000" stroke-width="2" fill="none"/><path d="M991.17 596.67h-2.03l-.13-.85 2-.3zM807.82 449.83l-9.1 1.73 1.88-14.88z"/><path d="M809.36 450.55l-11.8 2.25 2.44-19.3zm-9.48-.23l6.4-1.22-5.07-9.24z"/><path d="M990 737.67V679.9" stroke="#000" stroke-width="2" fill="none"/><path d="M991 738.67h-2v-1h2zM994.64 679.17h-9.28L990 664.9z"/><path d="M996 680.17h-12l6-18.5zm-9.26-2h6.52L990 668.14z"/><path d="M718 596.67c28.72 0 52 14.32 52 32 0 17.67-23.28 32-52 32H562c-28.72 0-52-14.33-52-32 0-17.68 23.28-32 52-32z" stroke="#000" stroke-width="2" fill="#fff"/><use xlink:href="#m" transform="matrix(1,0,0,1,515,601.6666666666666) translate(12.15000000000002 30.6)"/><path d="M650 650.67c0 5.52-4.48 10-10 10s-10-4.48-10-10c0-5.53 4.48-10 10-10s10 4.47 10 10zm-17.07-7.08l14.14 14.14m-14.14 0l14.14-14.15M784 751c3.3 0 6 2.7 6 6v48c0 3.3-2.7 6-6 6H476c-3.3 0-6-2.7-6-6v-48c0-3.3 2.7-6 6-6z" stroke="#000" stroke-width="2" fill="#fff"/><use xlink:href="#f" transform="matrix(1,0,0,1,490,751) translate(119.025 33.6)"/><path d="M508.08 766.75c0 2.62-2.12 4.75-4.75 4.75-2.62 0-4.75-2.13-4.75-4.75s2.13-4.75 4.75-4.75c2.63 0 4.75 2.13 4.75 4.75z" stroke="#000" stroke-width="2" fill="#fff"/><path d="M490 762h26.67v38H490z" fill="none"/><path d="M503.33 771.5v13.3l13.34 15.2m-13.34-15.2L490 800m0-23.75h26.67" stroke="#000" stroke-width="2" fill="none"/><path d="M794 740c3.3 0 6 2.7 6 6v48c0 3.3-2.7 6-6 6H486c-3.3 0-6-2.7-6-6v-48c0-3.3 2.7-6 6-6z" stroke="#000" stroke-width="2" fill="#fff"/><use xlink:href="#n" transform="matrix(1,0,0,1,500,740) translate(34.44444444444444 33.55555555555556)"/><path d="M518.08 755.75c0 2.62-2.12 4.75-4.75 4.75-2.62 0-4.75-2.13-4.75-4.75s2.13-4.75 4.75-4.75c2.63 0 4.75 2.13 4.75 4.75z" stroke="#000" stroke-width="2" fill="#fff"/><path d="M500 751h26.67v38H500z" fill="none"/><path d="M513.33 760.5v13.3l13.34 15.2m-13.34-15.2L500 789m0-23.75h26.67M640 739v-59.1" stroke="#000" stroke-width="2" fill="none"/><path d="M641 740h-2v-1h2zM644.64 679.17h-9.28L640 664.9z"/><path d="M646 680.17h-12l6-18.5zm-9.26-2h6.52L640 668.14z"/><path d="M640 595.66l.07-3.14.18-3 .3-2.88.4-2.77.53-2.68.6-2.62.72-2.55.82-2.5.92-2.5 1.03-2.44 1.15-2.47 1.3-2.45 1.42-2.48 1.6-2.52 1.8-2.57 2-2.64 2.27-2.75 2.6-2.87 3.03-3.08 3.55-3.33 4.3-3.7 5.46-4.33 7.62-5.53 17.5-11.5 23.18-15.07 7.62-5.52 5.46-4.32 4.3-3.7 3.55-3.35 3.02-3.06 2.6-2.9 2.26-2.74 2-2.64 1.8-2.57 1.6-2.53 1.43-2.48 1.28-2.47 1.15-2.45 1.03-2.46.92-2.47.82-2.5.45-1.62" stroke="#000" stroke-width="2" fill="none"/><path d="M641 595.77l-.1.9h-2l.1-1.1zM770.33 451.45l-9.2-1.2 6.45-13.54z"/><path d="M771.57 452.62l-11.92-1.55L768 433.5zm-8.94-3.18l6.47.84-1.94-10.36z"/><path d="M454 659.67c3.3 0 6 2.68 6 6v48c0 3.3-2.7 6-6 6H146c-3.3 0-6-2.7-6-6v-48c0-3.32 2.7-6 6-6z" stroke="#000" stroke-width="2" fill="#fff"/><use xlink:href="#o" transform="matrix(1,0,0,1,160,659.6666666666667) translate(32.150000000000006 33.6)"/><path d="M178.08 675.42c0 2.62-2.12 4.75-4.75 4.75-2.62 0-4.75-2.13-4.75-4.75 0-2.63 2.13-4.75 4.75-4.75 2.63 0 4.75 2.12 4.75 4.75z" stroke="#000" stroke-width="2" fill="#fff"/><path d="M160 670.67h26.67v38H160z" fill="none"/><path d="M173.33 680.17v13.3l13.34 15.2m-13.34-15.2L160 708.67m0-23.75h26.67M361 459.33l23.6-.47 19.56-1.22 16.8-1.76 14.93-2.2 13.82-2.64 13.43-3.15 14.1-3.95 17.9-5.84 57.6-20.22 14.1-3.94 13.43-3.15 13.83-2.64 14.95-2.2 16.8-1.76 19.54-1.22 5.37-.1" stroke="#000" stroke-width="2" fill="none"/><path d="M361.02 460.33l-1.07.02.05-1.02v-.65l-.04-.33 1.02-.02zM665.76 402.57l-14.16 4.92-.2-9.28z"/><path d="M669 402.5l-18.38 6.38-.24-12.02zm-16.43 3.6l9.96-3.47-10.1-3.05z"/><path d="M300 658.66l38.4-18.75 58.73-25.62 189.8-77.3 25.98-12.7 18.37-9.93 14-8.36 11.16-7.32 9.14-6.56 7.64-5.98 6.5-5.53 5.56-5.16 4.83-4.88 4.22-4.64 3.7-4.43 3.3-4.3 2.9-4.13 2.16-3.35" stroke="#000" stroke-width="2" fill="none"/><path d="M300.44 659.56l-.2.1h-3.08l-.3-.58 2.7-1.3zM710.83 451.2l-8.25-4.22 10.6-10.6z"/><path d="M711.6 452.7l-10.7-5.46 13.77-13.74zm-7.34-6l5.8 2.98 1.66-10.42z"/><defs><path d="M199 0l-22-63H83L61 0H9l90-248h61L250 0h-51zm-33-102l-36-108c-10 38-24 72-36 108h72" id="p"/><path d="M135-194c53 0 70 44 70 98 0 56-19 98-73 100-31 1-45-17-59-34 3 33 2 69 2 105H25l-1-265h48c2 10 0 23 3 31 11-24 29-35 60-35zM114-30c33 0 39-31 40-66 0-38-9-64-40-64-56 0-55 130 0 130" id="q"/><path d="M25 0v-261h50V0H25" id="r"/><path d="M25-224v-37h50v37H25zM25 0v-190h50V0H25" id="s"/><path d="M190-63c-7 42-38 67-86 67-59 0-84-38-90-98-12-110 154-137 174-36l-49 2c-2-19-15-32-35-32-30 0-35 28-38 64-6 74 65 87 74 30" id="t"/><path d="M133-34C117-15 103 5 69 4 32 3 11-16 11-54c-1-60 55-63 116-61 1-26-3-47-28-47-18 1-26 9-28 27l-52-2c7-38 36-58 82-57s74 22 75 68l1 82c-1 14 12 18 25 15v27c-30 8-71 5-69-32zm-48 3c29 0 43-24 42-57-32 0-66-3-65 30 0 17 8 27 23 27" id="u"/><path d="M115-3C79 11 28 4 28-45v-112H4v-33h27l15-45h31v45h36v33H77v99c-1 23 16 31 38 25v30" id="v"/><path d="M110-194c64 0 96 36 96 99 0 64-35 99-97 99-61 0-95-36-95-99 0-62 34-99 96-99zm-1 164c35 0 45-28 45-65 0-40-10-65-43-65-34 0-45 26-45 65 0 36 10 65 43 65" id="w"/><path d="M135-194c87-1 58 113 63 194h-50c-7-57 23-157-34-157-59 0-34 97-39 157H25l-1-190h47c2 12-1 28 3 38 12-26 28-41 61-42" id="x"/><g id="a"><use transform="matrix(0.05,0,0,0.05,0,0)" xlink:href="#p"/><use transform="matrix(0.05,0,0,0.05,12.950000000000001,0)" xlink:href="#q"/><use transform="matrix(0.05,0,0,0.05,23.900000000000002,0)" xlink:href="#q"/><use transform="matrix(0.05,0,0,0.05,34.85,0)" xlink:href="#r"/><use transform="matrix(0.05,0,0,0.05,39.85,0)" xlink:href="#s"/><use transform="matrix(0.05,0,0,0.05,44.85,0)" xlink:href="#t"/><use transform="matrix(0.05,0,0,0.05,54.85,0)" xlink:href="#u"/><use transform="matrix(0.05,0,0,0.05,64.85,0)" xlink:href="#v"/><use transform="matrix(0.05,0,0,0.05,70.8,0)" xlink:href="#s"/><use transform="matrix(0.05,0,0,0.05,75.8,0)" xlink:href="#w"/><use transform="matrix(0.05,0,0,0.05,86.75,0)" xlink:href="#x"/></g><path d="M195 0l-74-108L45 0H8l94-129-87-119h37l69 98 67-98h37l-84 118L233 0h-38" id="y"/><path d="M140-251c81 0 123 46 123 126C263-53 228-8 163 1c7 30 30 48 69 40v23c-55 16-95-15-103-61C56-3 17-48 17-125c0-80 42-126 123-126zm0 227c63 0 89-41 89-101s-29-99-89-99c-61 0-89 39-89 99S79-25 140-24" id="z"/><path d="M127-220V0H93v-220H8v-28h204v28h-85" id="A"/><path d="M185-189c-5-48-123-54-124 2 14 75 158 14 163 119 3 78-121 87-175 55-17-10-28-26-33-46l33-7c5 56 141 63 141-1 0-78-155-14-162-118-5-82 145-84 179-34 5 7 8 16 11 25" id="B"/><path d="M233-177c-1 41-23 64-60 70L243 0h-38l-65-103H63V0H30v-248c88 3 205-21 203 71zM63-129c60-2 137 13 137-47 0-61-80-42-137-45v92" id="C"/><path d="M84 4C-5 8 30-112 23-190h32v120c0 31 7 50 39 49 72-2 45-101 50-169h31l1 190h-30c-1-10 1-25-2-33-11 22-28 36-60 37" id="D"/><path d="M117-194c89-4 53 116 60 194h-32v-121c0-31-8-49-39-48C34-167 62-67 57 0H25l-1-190h30c1 10-1 24 2 32 11-22 29-35 61-36" id="E"/><path d="M100-194c63 0 86 42 84 106H49c0 40 14 67 53 68 26 1 43-12 49-29l28 8c-11 28-37 45-77 45C44 4 14-33 15-96c1-61 26-98 85-98zm52 81c6-60-76-77-97-28-3 7-6 17-6 28h103" id="F"/><path d="M114-163C36-179 61-72 57 0H25l-1-190h30c1 12-1 29 2 39 6-27 23-49 58-41v29" id="G"/><g id="b"><use transform="matrix(0.05,0,0,0.05,0,0)" xlink:href="#y"/><use transform="matrix(0.05,0,0,0.05,12,0)" xlink:href="#z"/><use transform="matrix(0.05,0,0,0.05,26,0)" xlink:href="#A"/><use transform="matrix(0.05,0,0,0.05,36.95,0)" xlink:href="#B"/><use transform="matrix(0.05,0,0,0.05,48.95,0)" xlink:href="#C"/><use transform="matrix(0.05,0,0,0.05,61.900000000000006,0)" xlink:href="#D"/><use transform="matrix(0.05,0,0,0.05,71.9,0)" xlink:href="#E"/><use transform="matrix(0.05,0,0,0.05,81.9,0)" xlink:href="#E"/><use transform="matrix(0.05,0,0,0.05,91.9,0)" xlink:href="#F"/><use transform="matrix(0.05,0,0,0.05,101.9,0)" xlink:href="#G"/></g><path d="M179-190L93 31C79 59 56 82 12 73V49c39 6 53-20 64-50L1-190h34L92-34l54-156h33" id="H"/><path d="M135-143c-3-34-86-38-87 0 15 53 115 12 119 90S17 21 10-45l28-5c4 36 97 45 98 0-10-56-113-15-118-90-4-57 82-63 122-42 12 7 21 19 24 35" id="I"/><path d="M59-47c-2 24 18 29 38 22v24C64 9 27 4 27-40v-127H5v-23h24l9-43h21v43h35v23H59v120" id="J"/><path d="M210-169c-67 3-38 105-44 169h-31v-121c0-29-5-50-35-48C34-165 62-65 56 0H25l-1-190h30c1 10-1 24 2 32 10-44 99-50 107 0 11-21 27-35 58-36 85-2 47 119 55 194h-31v-121c0-29-5-49-35-48" id="K"/><g id="c"><use transform="matrix(0.05,0,0,0.05,0,0)" xlink:href="#y"/><use transform="matrix(0.05,0,0,0.05,12,0)" xlink:href="#z"/><use transform="matrix(0.05,0,0,0.05,26,0)" xlink:href="#A"/><use transform="matrix(0.05,0,0,0.05,36.95,0)" xlink:href="#B"/><use transform="matrix(0.05,0,0,0.05,48.95,0)" xlink:href="#C"/><use transform="matrix(0.05,0,0,0.05,61.900000000000006,0)" xlink:href="#D"/><use transform="matrix(0.05,0,0,0.05,71.9,0)" xlink:href="#E"/><use transform="matrix(0.05,0,0,0.05,81.9,0)" xlink:href="#E"/><use transform="matrix(0.05,0,0,0.05,91.9,0)" xlink:href="#F"/><use transform="matrix(0.05,0,0,0.05,101.9,0)" xlink:href="#G"/><use transform="matrix(0.05,0,0,0.05,107.85000000000001,0)" xlink:href="#B"/><use transform="matrix(0.05,0,0,0.05,119.85000000000001,0)" xlink:href="#H"/><use transform="matrix(0.05,0,0,0.05,128.85000000000002,0)" xlink:href="#I"/><use transform="matrix(0.05,0,0,0.05,137.85000000000002,0)" xlink:href="#J"/><use transform="matrix(0.05,0,0,0.05,142.85000000000002,0)" xlink:href="#F"/><use transform="matrix(0.05,0,0,0.05,152.85000000000002,0)" xlink:href="#K"/></g><path d="M205 0l-28-72H64L36 0H1l101-248h38L239 0h-34zm-38-99l-47-123c-12 45-31 82-46 123h93" id="L"/><path d="M96-169c-40 0-48 33-48 73s9 75 48 75c24 0 41-14 43-38l32 2c-6 37-31 61-74 61-59 0-76-41-82-99-10-93 101-131 147-64 4 7 5 14 7 22l-32 3c-4-21-16-35-41-35" id="M"/><path d="M100-194c62-1 85 37 85 99 1 63-27 99-86 99S16-35 15-95c0-66 28-99 85-99zM99-20c44 1 53-31 53-75 0-43-8-75-51-75s-53 32-53 75 10 74 51 75" id="N"/><g id="d"><use transform="matrix(0.05,0,0,0.05,0,0)" xlink:href="#y"/><use transform="matrix(0.05,0,0,0.05,12,0)" xlink:href="#z"/><use transform="matrix(0.05,0,0,0.05,26,0)" xlink:href="#A"/><use transform="matrix(0.05,0,0,0.05,36.95,0)" xlink:href="#B"/><use transform="matrix(0.05,0,0,0.05,48.95,0)" xlink:href="#C"/><use transform="matrix(0.05,0,0,0.05,61.900000000000006,0)" xlink:href="#D"/><use transform="matrix(0.05,0,0,0.05,71.9,0)" xlink:href="#E"/><use transform="matrix(0.05,0,0,0.05,81.9,0)" xlink:href="#E"/><use transform="matrix(0.05,0,0,0.05,91.9,0)" xlink:href="#F"/><use transform="matrix(0.05,0,0,0.05,101.9,0)" xlink:href="#G"/><use transform="matrix(0.05,0,0,0.05,107.85000000000001,0)" xlink:href="#L"/><use transform="matrix(0.05,0,0,0.05,119.85000000000001,0)" xlink:href="#M"/><use transform="matrix(0.05,0,0,0.05,128.85000000000002,0)" xlink:href="#J"/><use transform="matrix(0.05,0,0,0.05,133.85000000000002,0)" xlink:href="#N"/><use transform="matrix(0.05,0,0,0.05,143.85000000000002,0)" xlink:href="#G"/></g><path d="M153-248C145-148 188 4 80 4 36 3 13-21 6-62l32-5c4 25 16 42 43 43 27 0 39-20 39-49v-147H72v-28h81" id="O"/><path d="M232-93c-1 65-40 97-104 97C67 4 28-28 28-90v-158h33c8 89-33 224 67 224 102 0 64-133 71-224h33v155" id="P"/><path d="M24-231v-30h32v30H24zM24 0v-190h32V0H24" id="Q"/><path d="M24 0v-261h32V0H24" id="R"/><path d="M141-36C126-15 110 5 73 4 37 3 15-17 15-53c-1-64 63-63 125-63 3-35-9-54-41-54-24 1-41 7-42 31l-33-3c5-37 33-52 76-52 45 0 72 20 72 64v82c-1 20 7 32 28 27v20c-31 9-61-2-59-35zM48-53c0 20 12 33 32 33 41-3 63-29 60-74-43 2-92-5-92 41" id="S"/><path d="M9 0v-24l116-142H16v-24h144v24L44-24h123V0H9" id="T"/><g id="e"><use transform="matrix(0.05,0,0,0.05,0,0)" xlink:href="#O"/><use transform="matrix(0.05,0,0,0.05,9,0)" xlink:href="#P"/><use transform="matrix(0.05,0,0,0.05,21.950000000000003,0)" xlink:href="#E"/><use transform="matrix(0.05,0,0,0.05,31.950000000000003,0)" xlink:href="#Q"/><use transform="matrix(0.05,0,0,0.05,35.900000000000006,0)" xlink:href="#J"/><use transform="matrix(0.05,0,0,0.05,40.900000000000006,0)" xlink:href="#C"/><use transform="matrix(0.05,0,0,0.05,53.85,0)" xlink:href="#F"/><use transform="matrix(0.05,0,0,0.05,63.85,0)" xlink:href="#I"/><use transform="matrix(0.05,0,0,0.05,72.85000000000001,0)" xlink:href="#D"/><use transform="matrix(0.05,0,0,0.05,82.85000000000001,0)" xlink:href="#R"/><use transform="matrix(0.05,0,0,0.05,86.80000000000001,0)" xlink:href="#J"/><use transform="matrix(0.05,0,0,0.05,91.80000000000001,0)" xlink:href="#I"/><use transform="matrix(0.05,0,0,0.05,100.80000000000001,0)" xlink:href="#B"/><use transform="matrix(0.05,0,0,0.05,112.80000000000001,0)" xlink:href="#F"/><use transform="matrix(0.05,0,0,0.05,122.80000000000001,0)" xlink:href="#G"/><use transform="matrix(0.05,0,0,0.05,128.75,0)" xlink:href="#Q"/><use transform="matrix(0.05,0,0,0.05,132.7,0)" xlink:href="#S"/><use transform="matrix(0.05,0,0,0.05,142.7,0)" xlink:href="#R"/><use transform="matrix(0.05,0,0,0.05,146.64999999999998,0)" xlink:href="#Q"/><use transform="matrix(0.05,0,0,0.05,150.59999999999997,0)" xlink:href="#T"/><use transform="matrix(0.05,0,0,0.05,159.59999999999997,0)" xlink:href="#F"/><use transform="matrix(0.05,0,0,0.05,169.59999999999997,0)" xlink:href="#G"/><use transform="matrix(0.05,0,0,0.05,175.54999999999995,0)" xlink:href="#C"/><use transform="matrix(0.05,0,0,0.05,188.49999999999994,0)" xlink:href="#N"/><use transform="matrix(0.05,0,0,0.05,198.49999999999994,0)" xlink:href="#D"/><use transform="matrix(0.05,0,0,0.05,208.49999999999991,0)" xlink:href="#J"/><use transform="matrix(0.05,0,0,0.05,213.49999999999991,0)" xlink:href="#F"/><use transform="matrix(0.05,0,0,0.05,223.49999999999991,0)" xlink:href="#G"/></g><g id="f"><use transform="matrix(0.05,0,0,0.05,0,0)" xlink:href="#L"/><use transform="matrix(0.05,0,0,0.05,12,0)" xlink:href="#M"/><use transform="matrix(0.05,0,0,0.05,21,0)" xlink:href="#J"/><use transform="matrix(0.05,0,0,0.05,26,0)" xlink:href="#N"/><use transform="matrix(0.05,0,0,0.05,36,0)" xlink:href="#G"/></g><g id="g"><use transform="matrix(0.04938271604938272,0,0,0.04938271604938272,0,0)" xlink:href="#O"/><use transform="matrix(0.04938271604938272,0,0,0.04938271604938272,8.88888888888889,0)" xlink:href="#P"/><use transform="matrix(0.04938271604938272,0,0,0.04938271604938272,21.679012345679013,0)" xlink:href="#E"/><use transform="matrix(0.04938271604938272,0,0,0.04938271604938272,31.555555555555557,0)" xlink:href="#Q"/><use transform="matrix(0.04938271604938272,0,0,0.04938271604938272,35.45679012345679,0)" xlink:href="#J"/><use transform="matrix(0.04938271604938272,0,0,0.04938271604938272,40.39506172839506,0)" xlink:href="#C"/><use transform="matrix(0.04938271604938272,0,0,0.04938271604938272,53.18518518518519,0)" xlink:href="#F"/><use transform="matrix(0.04938271604938272,0,0,0.04938271604938272,63.061728395061735,0)" xlink:href="#I"/><use transform="matrix(0.04938271604938272,0,0,0.04938271604938272,71.95061728395062,0)" xlink:href="#D"/><use transform="matrix(0.04938271604938272,0,0,0.04938271604938272,81.82716049382717,0)" xlink:href="#R"/><use transform="matrix(0.04938271604938272,0,0,0.04938271604938272,85.7283950617284,0)" xlink:href="#J"/><use transform="matrix(0.04938271604938272,0,0,0.04938271604938272,90.66666666666669,0)" xlink:href="#I"/><use transform="matrix(0.04938271604938272,0,0,0.04938271604938272,99.55555555555557,0)" xlink:href="#B"/><use transform="matrix(0.04938271604938272,0,0,0.04938271604938272,111.40740740740742,0)" xlink:href="#F"/><use transform="matrix(0.04938271604938272,0,0,0.04938271604938272,121.28395061728396,0)" xlink:href="#G"/><use transform="matrix(0.04938271604938272,0,0,0.04938271604938272,127.16049382716051,0)" xlink:href="#Q"/><use transform="matrix(0.04938271604938272,0,0,0.04938271604938272,131.06172839506175,0)" xlink:href="#S"/><use transform="matrix(0.04938271604938272,0,0,0.04938271604938272,140.93827160493828,0)" xlink:href="#R"/><use transform="matrix(0.04938271604938272,0,0,0.04938271604938272,144.83950617283952,0)" xlink:href="#Q"/><use transform="matrix(0.04938271604938272,0,0,0.04938271604938272,148.74074074074076,0)" xlink:href="#T"/><use transform="matrix(0.04938271604938272,0,0,0.04938271604938272,157.62962962962965,0)" xlink:href="#F"/><use transform="matrix(0.04938271604938272,0,0,0.04938271604938272,167.50617283950618,0)" xlink:href="#G"/><use transform="matrix(0.04938271604938272,0,0,0.04938271604938272,173.3827160493827,0)" xlink:href="#L"/><use transform="matrix(0.04938271604938272,0,0,0.04938271604938272,185.23456790123456,0)" xlink:href="#M"/><use transform="matrix(0.04938271604938272,0,0,0.04938271604938272,194.12345679012344,0)" xlink:href="#J"/><use transform="matrix(0.04938271604938272,0,0,0.04938271604938272,199.06172839506172,0)" xlink:href="#N"/><use transform="matrix(0.04938271604938272,0,0,0.04938271604938272,208.93827160493828,0)" xlink:href="#G"/></g><path d="M85-194c31 0 48 13 60 33l-1-100h32l1 261h-30c-2-10 0-23-3-31C134-8 116 4 85 4 32 4 16-35 15-94c0-66 23-100 70-100zm9 24c-40 0-46 34-46 75 0 40 6 74 45 74 42 0 51-32 51-76 0-42-9-74-50-73" id="U"/><path d="M63-220v92h138v28H63V0H30v-248h175v28H63" id="V"/><g id="h"><use transform="matrix(0.05,0,0,0.05,0,0)" xlink:href="#C"/><use transform="matrix(0.05,0,0,0.05,12.950000000000001,0)" xlink:href="#F"/><use transform="matrix(0.05,0,0,0.05,22.950000000000003,0)" xlink:href="#S"/><use transform="matrix(0.05,0,0,0.05,32.95,0)" xlink:href="#U"/><use transform="matrix(0.05,0,0,0.05,42.95,0)" xlink:href="#V"/><use transform="matrix(0.05,0,0,0.05,53.900000000000006,0)" xlink:href="#Q"/><use transform="matrix(0.05,0,0,0.05,57.85,0)" xlink:href="#R"/><use transform="matrix(0.05,0,0,0.05,61.80000000000001,0)" xlink:href="#F"/><use transform="matrix(0.05,0,0,0.05,71.80000000000001,0)" xlink:href="#C"/><use transform="matrix(0.05,0,0,0.05,84.75000000000001,0)" xlink:href="#N"/><use transform="matrix(0.05,0,0,0.05,94.75000000000001,0)" xlink:href="#D"/><use transform="matrix(0.05,0,0,0.05,104.75,0)" xlink:href="#J"/><use transform="matrix(0.05,0,0,0.05,109.75,0)" xlink:href="#F"/><use transform="matrix(0.05,0,0,0.05,119.75,0)" xlink:href="#G"/></g><g id="i"><use transform="matrix(0.04938271604938272,0,0,0.04938271604938272,0,0)" xlink:href="#C"/><use transform="matrix(0.04938271604938272,0,0,0.04938271604938272,12.790123456790125,0)" xlink:href="#F"/><use transform="matrix(0.04938271604938272,0,0,0.04938271604938272,22.66666666666667,0)" xlink:href="#S"/><use transform="matrix(0.04938271604938272,0,0,0.04938271604938272,32.543209876543216,0)" xlink:href="#U"/><use transform="matrix(0.04938271604938272,0,0,0.04938271604938272,42.41975308641976,0)" xlink:href="#V"/><use transform="matrix(0.04938271604938272,0,0,0.04938271604938272,53.23456790123457,0)" xlink:href="#Q"/><use transform="matrix(0.04938271604938272,0,0,0.04938271604938272,57.135802469135804,0)" xlink:href="#R"/><use transform="matrix(0.04938271604938272,0,0,0.04938271604938272,61.037037037037045,0)" xlink:href="#F"/><use transform="matrix(0.04938271604938272,0,0,0.04938271604938272,70.9135802469136,0)" xlink:href="#L"/><use transform="matrix(0.04938271604938272,0,0,0.04938271604938272,82.76543209876544,0)" xlink:href="#M"/><use transform="matrix(0.04938271604938272,0,0,0.04938271604938272,91.65432098765433,0)" xlink:href="#J"/><use transform="matrix(0.04938271604938272,0,0,0.04938271604938272,96.59259259259261,0)" xlink:href="#N"/><use transform="matrix(0.04938271604938272,0,0,0.04938271604938272,106.46913580246914,0)" xlink:href="#G"/></g><path d="M212-179c-10-28-35-45-73-45-59 0-87 40-87 99 0 60 29 101 89 101 43 0 62-24 78-52l27 14C228-24 195 4 139 4 59 4 22-46 18-125c-6-104 99-153 187-111 19 9 31 26 39 46" id="W"/><path d="M106-169C34-169 62-67 57 0H25v-261h32l-1 103c12-21 28-36 61-36 89 0 53 116 60 194h-32v-121c2-32-8-49-39-48" id="X"/><g id="j"><use transform="matrix(0.05,0,0,0.05,0,0)" xlink:href="#W"/><use transform="matrix(0.05,0,0,0.05,12.950000000000001,0)" xlink:href="#N"/><use transform="matrix(0.05,0,0,0.05,22.950000000000003,0)" xlink:href="#K"/><use transform="matrix(0.05,0,0,0.05,37.900000000000006,0)" xlink:href="#K"/><use transform="matrix(0.05,0,0,0.05,52.85,0)" xlink:href="#N"/><use transform="matrix(0.05,0,0,0.05,62.85,0)" xlink:href="#E"/><use transform="matrix(0.05,0,0,0.05,72.85000000000001,0)" xlink:href="#C"/><use transform="matrix(0.05,0,0,0.05,85.80000000000001,0)" xlink:href="#F"/><use transform="matrix(0.05,0,0,0.05,95.80000000000001,0)" xlink:href="#I"/><use transform="matrix(0.05,0,0,0.05,104.80000000000001,0)" xlink:href="#N"/><use transform="matrix(0.05,0,0,0.05,114.80000000000001,0)" xlink:href="#D"/><use transform="matrix(0.05,0,0,0.05,124.80000000000001,0)" xlink:href="#G"/><use transform="matrix(0.05,0,0,0.05,130.75,0)" xlink:href="#M"/><use transform="matrix(0.05,0,0,0.05,139.75,0)" xlink:href="#F"/><use transform="matrix(0.05,0,0,0.05,149.75,0)" xlink:href="#W"/><use transform="matrix(0.05,0,0,0.05,162.7,0)" xlink:href="#S"/><use transform="matrix(0.05,0,0,0.05,172.7,0)" xlink:href="#M"/><use transform="matrix(0.05,0,0,0.05,181.7,0)" xlink:href="#X"/><use transform="matrix(0.05,0,0,0.05,191.7,0)" xlink:href="#F"/><use transform="matrix(0.05,0,0,0.05,201.7,0)" xlink:href="#L"/><use transform="matrix(0.05,0,0,0.05,213.69999999999996,0)" xlink:href="#M"/><use transform="matrix(0.05,0,0,0.05,222.69999999999996,0)" xlink:href="#J"/><use transform="matrix(0.05,0,0,0.05,227.69999999999996,0)" xlink:href="#N"/><use transform="matrix(0.05,0,0,0.05,237.69999999999996,0)" xlink:href="#G"/></g><g id="k"><use transform="matrix(0.05,0,0,0.05,0,0)" xlink:href="#A"/><use transform="matrix(0.05,0,0,0.05,8.950000000000001,0)" xlink:href="#F"/><use transform="matrix(0.05,0,0,0.05,18.950000000000003,0)" xlink:href="#I"/><use transform="matrix(0.05,0,0,0.05,27.950000000000003,0)" xlink:href="#J"/><use transform="matrix(0.05,0,0,0.05,32.95,0)" xlink:href="#W"/><use transform="matrix(0.05,0,0,0.05,45.900000000000006,0)" xlink:href="#S"/><use transform="matrix(0.05,0,0,0.05,55.900000000000006,0)" xlink:href="#I"/><use transform="matrix(0.05,0,0,0.05,64.9,0)" xlink:href="#F"/><use transform="matrix(0.05,0,0,0.05,74.9,0)" xlink:href="#C"/><use transform="matrix(0.05,0,0,0.05,87.85000000000001,0)" xlink:href="#D"/><use transform="matrix(0.05,0,0,0.05,97.85000000000001,0)" xlink:href="#E"/><use transform="matrix(0.05,0,0,0.05,107.85000000000001,0)" xlink:href="#E"/><use transform="matrix(0.05,0,0,0.05,117.85000000000001,0)" xlink:href="#F"/><use transform="matrix(0.05,0,0,0.05,127.85000000000001,0)" xlink:href="#G"/><use transform="matrix(0.05,0,0,0.05,133.8,0)" xlink:href="#C"/><use transform="matrix(0.05,0,0,0.05,146.75,0)" xlink:href="#N"/><use transform="matrix(0.05,0,0,0.05,156.75,0)" xlink:href="#D"/><use transform="matrix(0.05,0,0,0.05,166.75,0)" xlink:href="#J"/><use transform="matrix(0.05,0,0,0.05,171.75,0)" xlink:href="#F"/><use transform="matrix(0.05,0,0,0.05,181.75,0)" xlink:href="#G"/></g><g id="l"><use transform="matrix(0.04938271604938272,0,0,0.04938271604938272,0,0)" xlink:href="#A"/><use transform="matrix(0.04938271604938272,0,0,0.04938271604938272,8.839506172839506,0)" xlink:href="#F"/><use transform="matrix(0.04938271604938272,0,0,0.04938271604938272,18.71604938271605,0)" xlink:href="#I"/><use transform="matrix(0.04938271604938272,0,0,0.04938271604938272,27.60493827160494,0)" xlink:href="#J"/><use transform="matrix(0.04938271604938272,0,0,0.04938271604938272,32.543209876543216,0)" xlink:href="#W"/><use transform="matrix(0.04938271604938272,0,0,0.04938271604938272,45.33333333333334,0)" xlink:href="#S"/><use transform="matrix(0.04938271604938272,0,0,0.04938271604938272,55.209876543209894,0)" xlink:href="#I"/><use transform="matrix(0.04938271604938272,0,0,0.04938271604938272,64.09876543209877,0)" xlink:href="#F"/><use transform="matrix(0.04938271604938272,0,0,0.04938271604938272,73.97530864197532,0)" xlink:href="#C"/><use transform="matrix(0.04938271604938272,0,0,0.04938271604938272,86.76543209876544,0)" xlink:href="#D"/><use transform="matrix(0.04938271604938272,0,0,0.04938271604938272,96.64197530864199,0)" xlink:href="#E"/><use transform="matrix(0.04938271604938272,0,0,0.04938271604938272,106.51851851851853,0)" xlink:href="#E"/><use transform="matrix(0.04938271604938272,0,0,0.04938271604938272,116.39506172839508,0)" xlink:href="#F"/><use transform="matrix(0.04938271604938272,0,0,0.04938271604938272,126.27160493827162,0)" xlink:href="#G"/><use transform="matrix(0.04938271604938272,0,0,0.04938271604938272,132.14814814814815,0)" xlink:href="#L"/><use transform="matrix(0.04938271604938272,0,0,0.04938271604938272,144,0)" xlink:href="#M"/><use transform="matrix(0.04938271604938272,0,0,0.04938271604938272,152.88888888888889,0)" xlink:href="#J"/><use transform="matrix(0.04938271604938272,0,0,0.04938271604938272,157.82716049382717,0)" xlink:href="#N"/><use transform="matrix(0.04938271604938272,0,0,0.04938271604938272,167.7037037037037,0)" xlink:href="#G"/></g><path d="M126-127c33 6 58 20 58 59 0 88-139 92-164 29-3-8-5-16-6-25l32-3c6 27 21 44 54 44 32 0 52-15 52-46 0-38-36-46-79-43v-28c39 1 72-4 72-42 0-27-17-43-46-43-28 0-47 15-49 41l-32-3c6-42 35-63 81-64 48-1 79 21 79 65 0 36-21 52-52 59" id="Y"/><path d="M30-248c87 1 191-15 191 75 0 78-77 80-158 76V0H30v-248zm33 125c57 0 124 11 124-50 0-59-68-47-124-48v98" id="Z"/><g id="m"><use transform="matrix(0.05,0,0,0.05,0,0)" xlink:href="#y"/><use transform="matrix(0.05,0,0,0.05,12,0)" xlink:href="#z"/><use transform="matrix(0.05,0,0,0.05,26,0)" xlink:href="#A"/><use transform="matrix(0.05,0,0,0.05,36.95,0)" xlink:href="#B"/><use transform="matrix(0.05,0,0,0.05,48.95,0)" xlink:href="#Y"/><use transform="matrix(0.05,0,0,0.05,58.95,0)" xlink:href="#A"/><use transform="matrix(0.05,0,0,0.05,67.9,0)" xlink:href="#F"/><use transform="matrix(0.05,0,0,0.05,77.9,0)" xlink:href="#I"/><use transform="matrix(0.05,0,0,0.05,86.9,0)" xlink:href="#J"/><use transform="matrix(0.05,0,0,0.05,91.9,0)" xlink:href="#B"/><use transform="matrix(0.05,0,0,0.05,103.9,0)" xlink:href="#F"/><use transform="matrix(0.05,0,0,0.05,113.9,0)" xlink:href="#J"/><use transform="matrix(0.05,0,0,0.05,118.9,0)" xlink:href="#Z"/><use transform="matrix(0.05,0,0,0.05,130.9,0)" xlink:href="#S"/><use transform="matrix(0.05,0,0,0.05,140.9,0)" xlink:href="#G"/><use transform="matrix(0.05,0,0,0.05,146.85,0)" xlink:href="#I"/><use transform="matrix(0.05,0,0,0.05,155.85,0)" xlink:href="#F"/><use transform="matrix(0.05,0,0,0.05,165.85,0)" xlink:href="#G"/><use transform="matrix(0.05,0,0,0.05,171.79999999999998,0)" xlink:href="#C"/><use transform="matrix(0.05,0,0,0.05,184.74999999999997,0)" xlink:href="#N"/><use transform="matrix(0.05,0,0,0.05,194.74999999999997,0)" xlink:href="#D"/><use transform="matrix(0.05,0,0,0.05,204.74999999999997,0)" xlink:href="#J"/><use transform="matrix(0.05,0,0,0.05,209.74999999999997,0)" xlink:href="#F"/><use transform="matrix(0.05,0,0,0.05,219.74999999999997,0)" xlink:href="#G"/></g><g id="n"><use transform="matrix(0.04938271604938272,0,0,0.04938271604938272,0,0)" xlink:href="#y"/><use transform="matrix(0.04938271604938272,0,0,0.04938271604938272,11.851851851851853,0)" xlink:href="#z"/><use transform="matrix(0.04938271604938272,0,0,0.04938271604938272,25.679012345679016,0)" xlink:href="#A"/><use transform="matrix(0.04938271604938272,0,0,0.04938271604938272,36.49382716049383,0)" xlink:href="#B"/><use transform="matrix(0.04938271604938272,0,0,0.04938271604938272,48.345679012345684,0)" xlink:href="#Y"/><use transform="matrix(0.04938271604938272,0,0,0.04938271604938272,58.22222222222223,0)" xlink:href="#A"/><use transform="matrix(0.04938271604938272,0,0,0.04938271604938272,67.06172839506173,0)" xlink:href="#F"/><use transform="matrix(0.04938271604938272,0,0,0.04938271604938272,76.93827160493828,0)" xlink:href="#I"/><use transform="matrix(0.04938271604938272,0,0,0.04938271604938272,85.82716049382717,0)" xlink:href="#J"/><use transform="matrix(0.04938271604938272,0,0,0.04938271604938272,90.76543209876544,0)" xlink:href="#B"/><use transform="matrix(0.04938271604938272,0,0,0.04938271604938272,102.61728395061729,0)" xlink:href="#F"/><use transform="matrix(0.04938271604938272,0,0,0.04938271604938272,112.49382716049384,0)" xlink:href="#J"/><use transform="matrix(0.04938271604938272,0,0,0.04938271604938272,117.43209876543212,0)" xlink:href="#Z"/><use transform="matrix(0.04938271604938272,0,0,0.04938271604938272,129.28395061728395,0)" xlink:href="#S"/><use transform="matrix(0.04938271604938272,0,0,0.04938271604938272,139.1604938271605,0)" xlink:href="#G"/><use transform="matrix(0.04938271604938272,0,0,0.04938271604938272,145.03703703703704,0)" xlink:href="#I"/><use transform="matrix(0.04938271604938272,0,0,0.04938271604938272,153.92592592592592,0)" xlink:href="#F"/><use transform="matrix(0.04938271604938272,0,0,0.04938271604938272,163.80246913580248,0)" xlink:href="#G"/><use transform="matrix(0.04938271604938272,0,0,0.04938271604938272,169.679012345679,0)" xlink:href="#L"/><use transform="matrix(0.04938271604938272,0,0,0.04938271604938272,181.53086419753086,0)" xlink:href="#M"/><use transform="matrix(0.04938271604938272,0,0,0.04938271604938272,190.41975308641975,0)" xlink:href="#J"/><use transform="matrix(0.04938271604938272,0,0,0.04938271604938272,195.35802469135803,0)" xlink:href="#N"/><use transform="matrix(0.04938271604938272,0,0,0.04938271604938272,205.23456790123458,0)" xlink:href="#G"/></g><path d="M177-190C167-65 218 103 67 71c-23-6-38-20-44-43l32-5c15 47 100 32 89-28v-30C133-14 115 1 83 1 29 1 15-40 15-95c0-56 16-97 71-98 29-1 48 16 59 35 1-10 0-23 2-32h30zM94-22c36 0 50-32 50-73 0-42-14-75-50-75-39 0-46 34-46 75s6 73 46 73" id="aa"/><g id="o"><use transform="matrix(0.05,0,0,0.05,0,0)" xlink:href="#y"/><use transform="matrix(0.05,0,0,0.05,12,0)" xlink:href="#z"/><use transform="matrix(0.05,0,0,0.05,26,0)" xlink:href="#A"/><use transform="matrix(0.05,0,0,0.05,36.95,0)" xlink:href="#B"/><use transform="matrix(0.05,0,0,0.05,48.95,0)" xlink:href="#Y"/><use transform="matrix(0.05,0,0,0.05,58.95,0)" xlink:href="#W"/><use transform="matrix(0.05,0,0,0.05,71.9,0)" xlink:href="#S"/><use transform="matrix(0.05,0,0,0.05,81.9,0)" xlink:href="#J"/><use transform="matrix(0.05,0,0,0.05,86.9,0)" xlink:href="#S"/><use transform="matrix(0.05,0,0,0.05,96.9,0)" xlink:href="#R"/><use transform="matrix(0.05,0,0,0.05,100.85000000000001,0)" xlink:href="#N"/><use transform="matrix(0.05,0,0,0.05,110.85000000000001,0)" xlink:href="#aa"/><use transform="matrix(0.05,0,0,0.05,120.85000000000001,0)" xlink:href="#Z"/><use transform="matrix(0.05,0,0,0.05,132.85000000000002,0)" xlink:href="#S"/><use transform="matrix(0.05,0,0,0.05,142.85000000000002,0)" xlink:href="#G"/><use transform="matrix(0.05,0,0,0.05,148.8,0)" xlink:href="#I"/><use transform="matrix(0.05,0,0,0.05,157.8,0)" xlink:href="#F"/><use transform="matrix(0.05,0,0,0.05,167.8,0)" xlink:href="#G"/><use transform="matrix(0.05,0,0,0.05,173.75,0)" xlink:href="#L"/><use transform="matrix(0.05,0,0,0.05,185.75,0)" xlink:href="#M"/><use transform="matrix(0.05,0,0,0.05,194.75,0)" xlink:href="#J"/><use transform="matrix(0.05,0,0,0.05,199.75,0)" xlink:href="#N"/><use transform="matrix(0.05,0,0,0.05,209.75,0)" xlink:href="#G"/></g></defs></g></svg>